<svg xmlns="http://www.w3.org/2000/svg" x="0px" y="0px"
width="240" height="240"
viewBox="0 0 80 80"
style=" fill:#000000;"><path fill="#c7c0e2" d="M34.962,77.5l-2.274-9.096l-0.284-0.076c-4.999-1.338-9.553-3.958-13.169-7.577l-0.208-0.208 l-8.984,2.57l-5.038-8.727l6.74-6.517l-0.076-0.284c-0.681-2.549-1.026-5.101-1.026-7.586s0.345-5.037,1.026-7.586l0.076-0.284 l-6.74-6.517l5.038-8.727l8.984,2.57l0.208-0.208c3.616-3.619,8.169-6.239,13.168-7.577l0.284-0.076L34.961,2.5h10.077l2.274,9.096 l0.284,0.076c4.999,1.338,9.553,3.958,13.169,7.577l0.208,0.208l8.983-2.57l5.039,8.727l-6.74,6.517l0.076,0.284 c0.681,2.548,1.026,5.1,1.026,7.586c0,2.485-0.345,5.038-1.026,7.586l-0.076,0.284l6.74,6.516l-5.038,8.727l-8.984-2.57 l-0.208,0.208c-3.617,3.619-8.17,6.239-13.169,7.577l-0.284,0.076L45.039,77.5H34.962z"></path><path fill="#8b75a1" d="M44.648,3l2.108,8.431l0.143,0.571l0.569,0.152c4.914,1.315,9.39,3.89,12.944,7.447l0.416,0.417 l0.566-0.162l8.325-2.382l4.648,8.051l-6.248,6.041l-0.423,0.409l0.152,0.568c0.67,2.506,1.009,5.015,1.009,7.457 c0,2.442-0.34,4.951-1.009,7.456l-0.152,0.568l0.423,0.409l6.248,6.041l-4.648,8.051l-8.325-2.381l-0.566-0.162l-0.416,0.417 c-3.554,3.557-8.03,6.132-12.944,7.447l-0.569,0.152l-0.143,0.571L44.648,77h-9.296l-2.108-8.431l-0.143-0.571l-0.569-0.152 c-4.914-1.315-9.39-3.89-12.944-7.447l-0.416-0.416l-0.566,0.162l-8.325,2.381l-4.648-8.05l6.248-6.041l0.423-0.409l-0.152-0.568 c-0.67-2.506-1.009-5.015-1.009-7.457s0.34-4.95,1.009-7.457l0.152-0.568l-0.423-0.409l-6.248-6.041l4.648-8.05l8.325,2.381 l0.566,0.162l0.416-0.417c3.554-3.557,8.03-6.132,12.944-7.447l0.569-0.152l0.143-0.571L35.352,3H44.648 M45.429,2H34.571 l-2.297,9.189c-5.138,1.375-9.743,4.054-13.393,7.706l-9.076-2.596l-5.429,9.403l6.809,6.584c-0.659,2.465-1.043,5.042-1.043,7.715 s0.384,5.25,1.043,7.715l-6.809,6.584l5.429,9.403l9.076-2.596c3.65,3.652,8.255,6.331,13.393,7.706L34.572,78h10.857l2.297-9.189 c5.138-1.375,9.743-4.054,13.393-7.706l9.076,2.596l5.429-9.403l-6.809-6.584c0.659-2.465,1.043-5.042,1.043-7.715 s-0.384-5.25-1.043-7.715l6.809-6.584l-5.429-9.403l-9.076,2.596c-3.65-3.652-8.255-6.331-13.393-7.706L45.429,2L45.429,2z"></path><path fill="#fff" d="M26.065 45.974L25.097 51H21l4.709-22h5.065L35 51h-4.097l-.936-5.026H26.065zM29.719 43l-.849-4.958c-.224-1.338-.514-3.558-.709-4.994h-.098c-.224 1.469-.548 3.722-.772 4.994L26.344 43H29.719zM38 29.422C39.176 29.162 40.761 29 42.35 29c2.476 0 4.446.357 5.811 1.689 1.269 1.137 1.84 2.958 1.84 4.809 0 2.374-.698 4.063-1.809 5.265-1.334 1.462-3.459 2.113-5.206 2.113-.285 0-.7 0-.986-.033V51h-4V29.422zM42 39.399c.22.032.604.032.858.032 2.094 0 3.016-1.527 3.016-3.574 0-1.918-.763-3.413-2.699-3.413-.382 0-.923.065-1.175.164V39.399zM53 29h4v22h-4V29z"></path></svg>