<svg xmlns="http://www.w3.org/2000/svg" x="0px" y="0px"
width="256" height="256"
viewBox="0 0 256 256"
style=" fill:#000000;"><path fill="#F9D335" d="M64.356,207.98c4.896-4.193,7.909-10.521,7.582-17.544c-0.511-10.96-9.368-19.967-20.32-20.646 c-12.626-0.782-23.111,9.227-23.111,21.684c0,6.607,2.953,12.521,7.606,16.505h0c-13.466,0-24.382,10.916-24.382,24.382v8.343 c0,2.467,2,4.466,4.466,4.466h68.074c2.467,0,4.466-2,4.466-4.466v-8.343C88.738,218.896,77.822,207.98,64.356,207.98 L64.356,207.98z"></path><path fill="#F9E27D" d="M48.162,207.981c-6.732,0-12.83,2.732-17.24,7.142c-4.411,4.411-7.142,10.508-7.142,17.241v8.339 c0,2.466,2,4.467,4.467,4.467H16.195c-2.466,0-4.467-2-4.467-4.467v-8.339c0-6.732,2.731-12.83,7.142-17.241 c4.411-4.411,10.508-7.142,17.24-7.142c-4.652-3.985-7.608-9.898-7.608-16.509c0-12.452,10.492-22.462,23.113-21.683 c1.599,0.096,3.157,0.378,4.644,0.811c-9.07,2.611-15.706,10.966-15.706,20.872C40.554,198.083,43.51,203.996,48.162,207.981z"></path><path fill="#F2C300" d="M88.74,232.363v8.339c0,2.466-2,4.467-4.467,4.467H72.223c2.466,0,4.467-2,4.467-4.467v-8.339 c0-13.465-10.918-24.383-24.383-24.383c4.893-4.194,7.905-10.524,7.576-17.546c-0.434-9.359-6.957-17.289-15.674-19.835 c2.33-0.675,4.828-0.972,7.407-0.811c10.95,0.683,19.811,9.689,20.318,20.647c0.329,7.022-2.683,13.352-7.576,17.546 C77.823,207.981,88.74,218.899,88.74,232.363z"></path><g><path fill="#FF4A73" d="M219.887,207.98c4.896-4.193,7.909-10.521,7.582-17.544c-0.511-10.96-9.368-19.967-20.32-20.646 c-12.626-0.782-23.111,9.227-23.111,21.684c0,6.607,2.953,12.521,7.606,16.505h0c-13.466,0-24.382,10.916-24.382,24.382v8.343 c0,2.467,2,4.466,4.466,4.466h68.074c2.467,0,4.466-2,4.466-4.466v-8.343C244.269,218.896,233.353,207.98,219.887,207.98 L219.887,207.98z"></path><path fill="#F973A3" d="M203.693,207.981c-6.732,0-12.83,2.732-17.24,7.142c-4.411,4.411-7.142,10.508-7.142,17.241v8.339 c0,2.466,2,4.467,4.467,4.467h-12.051c-2.466,0-4.467-2-4.467-4.467v-8.339c0-6.732,2.731-12.83,7.142-17.241 c4.411-4.411,10.508-7.142,17.241-7.142c-4.652-3.985-7.608-9.898-7.608-16.509c0-12.452,10.492-22.462,23.113-21.683 c1.599,0.096,3.157,0.378,4.644,0.811c-9.07,2.611-15.706,10.966-15.706,20.872 C196.085,198.083,199.041,203.996,203.693,207.981z"></path><path fill="#EA2A6A" d="M244.272,232.363v8.339c0,2.466-2,4.467-4.467,4.467h-12.051c2.466,0,4.467-2,4.467-4.467v-8.339 c0-13.465-10.918-24.383-24.383-24.383c4.893-4.194,7.905-10.524,7.576-17.546c-0.434-9.359-6.957-17.289-15.674-19.835 c2.33-0.675,4.828-0.972,7.407-0.811c10.95,0.683,19.811,9.689,20.318,20.647c0.329,7.022-2.683,13.352-7.576,17.546 C233.354,207.981,244.272,218.899,244.272,232.363z"></path></g><g><path fill="#5FCDFF" d="M142.054,10.833c34.711,0,62.85,28.139,62.85,62.85c0,9.879-2.282,19.224-6.344,27.542 c3.012,12.185,9.006,28.005,20.67,36.647c2.263,1.677,1.326,5.249-1.477,5.53c-11.995,1.201-33.921,1.131-52.557-11.268 c-7.162,2.838-14.97,4.399-23.143,4.399c-34.711,0-62.85-28.139-62.85-62.85S107.343,10.833,142.054,10.833z"></path><path fill="#73D7F9" d="M196.065,73.682c0,9.88-2.28,19.225-6.345,27.544c3.017,12.184,9.008,28.003,20.674,36.646 c2.262,1.679,1.326,5.249-1.479,5.532c-1.638,0.165-3.464,0.306-5.438,0.395c5.497,0.247,10.405-0.006,14.276-0.395 c2.804-0.283,3.741-3.853,1.479-5.532c-11.665-8.643-17.657-24.462-20.674-36.646c4.065-8.319,6.345-17.663,6.345-27.544 c0-34.708-28.139-62.846-62.846-62.846c-1.485,0-2.958,0.053-4.419,0.159C170.284,13.257,196.065,40.458,196.065,73.682z"></path><path fill="#30B6FF" d="M79.204,73.682c0,34.714,28.139,62.852,62.852,62.852c1.485,0,2.958-0.053,4.419-0.159 c-32.652-2.262-58.434-29.464-58.434-62.693c0-33.223,25.782-60.425,58.434-62.687c-1.461-0.106-2.934-0.159-4.419-0.159 C107.343,10.835,79.204,38.974,79.204,73.682z"></path><g><path fill="#5FCDFF" d="M113.946,20.209c-34.711,0-62.85,28.139-62.85,62.85c0,9.879,2.282,19.224,6.344,27.542 c-3.012,12.185-9.006,28.005-20.67,36.647c-2.263,1.677-1.326,5.249,1.477,5.53c11.995,1.201,33.921,1.131,52.557-11.268 c7.162,2.838,14.97,4.399,23.143,4.399c34.711,0,62.85-28.139,62.85-62.85S148.657,20.209,113.946,20.209z"></path><path fill="#73D7F9" d="M59.935,83.057c0,9.88,2.28,19.225,6.345,27.544c-3.017,12.184-9.008,28.003-20.674,36.646 c-2.262,1.679-1.326,5.249,1.479,5.532c1.638,0.165,3.464,0.306,5.438,0.395c-5.497,0.247-10.405-0.006-14.276-0.395 c-2.804-0.283-3.741-3.853-1.479-5.532c11.666-8.643,17.657-24.462,20.674-36.646c-4.065-8.319-6.345-17.663-6.345-27.544 c0-34.708,28.139-62.846,62.846-62.846c1.485,0,2.958,0.053,4.419,0.159C85.716,22.632,59.935,49.834,59.935,83.057z"></path><path fill="#30B6FF" d="M176.796,83.057c0,34.714-28.139,62.852-62.852,62.852c-1.485,0-2.958-0.053-4.419-0.159 c32.652-2.262,58.434-29.464,58.434-62.693c0-33.223-25.782-60.425-58.434-62.687c1.461-0.106,2.934-0.159,4.419-0.159 C148.657,20.21,176.796,48.349,176.796,83.057z"></path><g><path fill="#F9D335" d="M143.145,63.115c0-17.448-14.746-31.452-32.456-30.229C96.026,33.898,84.03,45.585,82.672,60.22 c-0.717,7.728,1.472,14.924,5.598,20.627c6.883,9.512,10.923,8.414,10.923,20.156v1.331h27.296v-1.061 c0-11.563,3.455-10.618,10.467-19.812C140.839,76.37,143.145,70.013,143.145,63.115z"></path><path fill="#F9E27D" d="M98.577,80.845c6.884,9.515,10.924,8.416,10.924,20.158v1.333H99.195v-1.333 c0-11.741-4.04-10.642-10.924-20.158c-4.129-5.702-6.314-12.896-5.599-20.625c1.36-14.634,13.356-26.32,28.017-27.337 c2.508-0.172,4.954-0.041,7.31,0.364c-13.274,2.281-23.758,13.349-25.022,26.973C92.263,67.95,94.448,75.143,98.577,80.845z"></path><path fill="#F2C300" d="M143.145,63.113c0,6.902-2.307,13.256-6.189,18.348c-7.012,9.195-10.467,8.248-10.467,19.813v1.061 h-9.649v-1.061c0-11.566,3.455-10.619,10.467-19.813c3.883-5.091,6.189-11.446,6.189-18.348 c0-15.099-11.042-27.616-25.488-29.918c0.882-0.142,1.778-0.244,2.684-0.308C128.4,31.661,143.145,45.666,143.145,63.113z"></path><path fill="#87828E" d="M126.492,102.333v17.326c0,7.539-6.11,13.649-13.649,13.649s-13.649-6.11-13.649-13.649v-17.326 H126.492z"></path><path fill="#796E84" d="M126.492,115.613v4.045c0,7.539-6.11,13.649-13.649,13.649s-13.649-6.11-13.649-13.649v-4.045H126.492 z"></path><path fill="#A4A4A5" d="M117.999,132.299c-1.594,0.653-3.332,1.01-5.16,1.01c-7.537,0-13.644-6.108-13.644-13.651v-17.322 h10.305v17.322C109.501,125.38,113.012,130.272,117.999,132.299z"></path><path fill="#87828E" d="M117.999,132.299c-1.594,0.653-3.332,1.01-5.16,1.01c-7.537,0-13.644-6.108-13.644-13.651v-4.047 h10.305v4.047C109.501,125.38,113.012,130.272,117.999,132.299z"></path></g></g></g><g><path fill="#5F266D" d="M72.1,205.05c2.72-4.36,4.08-9.49,3.83-14.8c-0.6-12.91-11.17-23.65-24.06-24.45 c-15.247-0.953-27.36,11.235-27.36,25.67c0,4.86,1.36,9.55,3.87,13.58c-11.9,3.37-20.65,14.34-20.65,27.31v8.35 c0,4.66,3.8,8.46,8.47,8.46h68.07c4.67,0,8.47-3.8,8.47-8.46v-8.35C92.74,219.39,84,208.43,72.1,205.05z M84.74,240.71 c0,0.25-0.21,0.46-0.47,0.46H16.2c-0.26,0-0.47-0.21-0.47-0.46v-8.35c0-11.24,9.14-20.38,20.38-20.38 c3.708,0,5.432-4.628,2.6-7.04c-3.94-3.38-6.2-8.29-6.2-13.47c0-9.837,7.949-17.72,17.72-17.72c9.618,0,17.291,7.777,17.71,16.87 c0.26,5.51-2,10.73-6.19,14.32c-2.809,2.411-1.113,7.04,2.61,7.04c11.23,0,20.38,9.14,20.38,20.38V240.71z"></path><path fill="#5F266D" d="M227.63,205.05c2.72-4.36,4.08-9.49,3.83-14.8c-0.6-12.91-11.17-23.65-24.06-24.45 c-15.262-0.955-27.36,11.255-27.36,25.67c0,4.86,1.37,9.55,3.87,13.58c-11.9,3.37-20.65,14.34-20.65,27.31v8.35 c0,4.66,3.8,8.46,8.47,8.46h68.07c4.67,0,8.47-3.8,8.47-8.46v-8.35C248.27,219.39,239.53,208.43,227.63,205.05z M240.27,240.71 c0,0.25-0.21,0.46-0.47,0.46h-68.07c-0.26,0-0.47-0.21-0.47-0.46v-8.35c0-11.24,9.15-20.38,20.38-20.38 c3.717,0,5.423-4.625,2.61-7.04c-3.95-3.38-6.21-8.29-6.21-13.47c0-9.837,7.949-17.72,17.72-17.72 c9.618,0,17.291,7.777,17.71,16.87c0.26,5.51-2,10.73-6.19,14.32c-2.811,2.413-1.105,7.04,2.61,7.04 c11.24,0,20.38,9.14,20.38,20.38V240.71z"></path><path fill="#5F266D" d="M218.15,147.38c6.427-0.638,8.667-8.87,3.46-12.72c-10.36-7.68-15.92-21.92-18.82-33.02 c4.06-8.79,6.11-18.19,6.11-27.96c0-36.86-29.98-66.85-66.85-66.85c-12.68,0-24.55,3.55-34.67,9.71 c-33.8,3.3-60.28,31.88-60.28,66.52c0,9.77,2.05,19.17,6.11,27.95c-2.9,11.11-8.46,25.35-18.82,33.02 c-5.208,3.873-2.969,12.069,3.46,12.73c18.201,1.795,37.672-1.022,53.42-10.8c18.334,6.617,39.515,5.083,57.34-5.75 c5.52-0.53,10.91-1.74,16.12-3.62C180.467,146.361,200.109,149.222,218.15,147.38z M113.95,141.91c-7.49,0-14.78-1.39-21.67-4.12 c-1.22-0.48-2.6-0.34-3.69,0.39C72.02,149.2,52.5,149.86,41,149c11.48-9.63,17.38-25.51,20.32-37.44 c0.23-0.91,0.13-1.87-0.29-2.71c-3.94-8.07-5.93-16.75-5.93-25.79c0-32.463,26.413-58.85,58.85-58.85 c32.45,0,58.85,26.4,58.85,58.85C172.8,115.546,146.356,141.91,113.95,141.91z M162.62,128.83 c11.27-11.97,18.18-28.08,18.18-45.77c0-32.93-23.94-60.38-55.32-65.85c5.26-1.55,10.82-2.38,16.57-2.38 c32.45,0,58.85,26.4,58.85,58.85c0,9.05-1.99,17.72-5.93,25.79c-0.42,0.84-0.52,1.8-0.29,2.72c2.94,11.92,8.84,27.81,20.32,37.44 c-11.5,0.85-31.03,0.19-47.59-10.83c-1.039-0.693-2.388-0.895-3.69-0.38C163.36,128.56,162.99,128.7,162.62,128.83z"></path><path fill="#5F266D" d="M110.41,28.9c-16.502,1.139-30.188,14.417-31.72,30.95c-0.741,8.059,1.301,16.307,6.34,23.34 c2.3,3.18,4.3,5.26,5.91,6.93c3.18,3.29,4.25,4.4,4.25,10.88c0,3.594,0,14.623,0,18.66c0,9.748,7.936,17.65,17.65,17.65 c9.718,0,17.65-7.932,17.65-17.65c0-0.154,0-0.294,0-0.438c0-3.104,0-4.069,0-3.992c0-2.735,0-7.13,0-13.96 c0-6.68,0.99-7.72,4.25-11.16c1.46-1.53,3.28-3.44,5.4-6.22c4.58-6.02,7.01-13.2,7.01-20.78 C147.15,43.788,130.851,27.478,110.41,28.9z M102.05,63.57h-1.15c-0.64,0-1.15-0.52-1.15-1.15v-2.01c0-0.63,0.51-1.15,1.15-1.15 c0.64,0,1.15,0.52,1.15,1.15V63.57z M122.49,119.66c0,5.331-4.353,9.65-9.65,9.65c-5.32,0-9.65-4.33-9.65-9.65v-0.05 c6.68,0,13.102,0,19.3,0V119.66z M122.49,111.61h-19.3v-5.28c6.801,0,11.936,0,19.3,0V111.61z M110.05,98.33V71.57h5.58v26.76 H110.05z M133.78,79.04c-1.86,2.43-3.44,4.09-4.84,5.56c-2.47,2.6-4.25,4.62-5.31,7.73V71.57h1.19c5.03-0.02,9.12-4.12,9.12-9.15 v-2.01c0-5.04-4.11-9.15-9.16-9.15c-5.05,0-9.15,4.11-9.15,9.15v3.16h-5.58v-3.16c0-5.04-4.1-9.15-9.15-9.15 c-5.05,0-9.15,4.11-9.15,9.15v2.01c0,5.05,4.1,9.15,9.15,9.15h1.15v20.78c-1.1-3.23-2.95-5.31-5.35-7.79 c-4.606-4.759-11.163-11.994-10.04-23.97c1.17-12.64,11.62-22.84,24.3-23.71c15.402-1.083,28.19,11.077,28.19,26.23 C139.15,68.92,137.29,74.43,133.78,79.04z M123.63,63.57v-3.16c0-0.63,0.52-1.15,1.15-1.15c0.64,0,1.16,0.52,1.16,1.15v2.01 c0,0.63-0.52,1.15-1.16,1.15H123.63z"></path></g></svg>