<svg xmlns="http://www.w3.org/2000/svg" x="0px" y="0px"
width="256" height="256"
viewBox="0 0 256 256"
style=" fill:#000000;"><path fill="#cecece" d="M32.035,197.312c-7.535,0-13.665-6.13-13.665-13.665V59.87c0-7.535,6.13-13.665,13.665-13.665h191.931 c7.535,0,13.665,6.13,13.665,13.665v123.776c0,7.535-6.13,13.665-13.665,13.665H32.035z"></path><path fill="#afafaf" d="M33.036,183.647V59.87c0-7.535,6.13-13.665,13.665-13.665H32.035c-7.534,0-13.665,6.13-13.665,13.665 v123.776c0,7.535,6.13,13.665,13.665,13.665h14.667C39.167,197.312,33.036,191.181,33.036,183.647z"></path><path fill="#e2e2e2" d="M222.964,183.647V59.87c0-7.535-6.13-13.665-13.665-13.665h14.667c7.534,0,13.665,6.13,13.665,13.665 v123.776c0,7.535-6.13,13.665-13.665,13.665h-14.667C216.833,197.312,222.964,191.181,222.964,183.647z"></path><path fill="#63bce7" d="M229.221,171.647c0,2.891-2.365,5.256-5.256,5.256H32.035c-2.891,0-5.256-2.365-5.256-5.256V59.87 c0-2.891,2.365-5.256,5.256-5.256h191.931c2.891,0,5.256,2.365,5.256,5.256V171.647z"></path><path fill="#6377e7" d="M41.446,171.647V59.87c0-2.891,2.365-5.256,5.256-5.256H32.035c-2.891,0-5.256,2.365-5.256,5.256v111.777 c0,2.891,2.365,5.256,5.256,5.256h14.667C43.811,176.903,41.446,174.537,41.446,171.647z"></path><path fill="#63e2e7" d="M214.554,171.647V59.87c0-2.891-2.365-5.256-5.256-5.256h14.667c2.891,0,5.256,2.365,5.256,5.256v111.777 c0,2.891-2.365,5.256-5.256,5.256h-14.667C212.189,176.903,214.554,174.537,214.554,171.647z"></path><rect width="76.383" height="9.197" x="89.809" y="219.47" fill="#9e9e9e"></rect><rect width="54.659" height="22.158" x="100.67" y="197.312" fill="#cecece"></rect><rect width="14.667" height="22.158" x="100.67" y="197.312" fill="#afafaf"></rect><rect width="14.667" height="9.197" x="89.809" y="219.47" fill="#707070"></rect><circle cx="128" cy="187.107" r="4.5" fill="#9e9e9e"></circle><path fill="#cecece" d="M194.643,148.703H61.357c-5.854,0-10.6-4.746-10.6-10.6V26.96c0-5.854,4.746-10.6,10.6-10.6h133.285 c5.854,0,10.6,4.746,10.6,10.6v111.143C205.243,143.957,200.497,148.703,194.643,148.703z"></path><path fill="#f8af23" d="M205.242,26.962c0-5.855-4.746-10.602-10.602-10.602H61.359c-5.855,0-10.602,4.747-10.602,10.602v18.449 h154.485V26.962z"></path><g><circle cx="69.682" cy="30.885" r="4.842" fill="#f46275"></circle><circle cx="88.332" cy="30.885" r="4.842" fill="#f46275"></circle><circle cx="106.981" cy="30.885" r="4.842" fill="#f46275"></circle><path fill="#f46275" d="M187.471,34.891h-61.265c-2.029,0-3.689-1.66-3.689-3.689v0c0-2.029,1.66-3.689,3.689-3.689h61.265 c2.029,0,3.689,1.66,3.689,3.689v0C191.16,33.231,189.5,34.891,187.471,34.891z"></path></g><path fill="#f46275" d="M224.221,119.5H145.75c-2.761,0-5-2.239-5-5V76.25c0-2.761,2.239-5,5-5h78.471c2.761,0,5,2.239,5,5v38.25 C229.221,117.261,226.982,119.5,224.221,119.5z"></path><g><path fill="#f48875" d="M224.221,71.311h-14.667c2.761,0,5,2.239,5,5v38.25c0,2.761-2.239,5-5,5h14.667c2.761,0,5-2.239,5-5v-38.25 C229.221,73.549,226.983,71.311,224.221,71.311z"></path></g><g><path fill="#3f3679" d="M27.323,238.14H9.32c-0.829,0-1.5,0.671-1.5,1.5s0.671,1.5,1.5,1.5h18.003c0.829,0,1.5-0.671,1.5-1.5 S28.152,238.14,27.323,238.14z"></path><path fill="#3f3679" d="M246.68,238.14h-18.003c-0.829,0-1.5,0.671-1.5,1.5s0.671,1.5,1.5,1.5h18.003c0.829,0,1.5-0.671,1.5-1.5 S247.509,238.14,246.68,238.14z"></path><path fill="#3f3679" d="M218.479,238.14H37.521c-0.829,0-1.5,0.671-1.5,1.5s0.671,1.5,1.5,1.5h180.959c0.829,0,1.5-0.671,1.5-1.5 S219.308,238.14,218.479,238.14z"></path><path fill="#3f3679" d="M9.32,230.167h80.489h76.383h80.489c0.829,0,1.5-0.671,1.5-1.5s-0.671-1.5-1.5-1.5h-78.989v-7.697 c0-0.829-0.671-1.5-1.5-1.5h-9.362v-19.158h67.136c8.362,0,15.165-6.803,15.165-15.165V59.871c0-8.362-6.803-15.165-15.165-15.165 h-17.223V26.96c0-6.672-5.428-12.1-12.1-12.1H61.357c-6.672,0-12.1,5.428-12.1,12.1v17.746H32.035 c-8.362,0-15.165,6.803-15.165,15.165v123.776c0,8.362,6.803,15.165,15.165,15.165H99.17v19.158h-9.362 c-0.829,0-1.5,0.671-1.5,1.5v7.697H9.32c-0.829,0-1.5,0.671-1.5,1.5S8.491,230.167,9.32,230.167z M145.75,118 c-1.93,0-3.5-1.57-3.5-3.5V76.25c0-1.93,1.57-3.5,3.5-3.5h78.471c1.93,0,3.5,1.57,3.5,3.5v38.25c0,1.93-1.57,3.5-3.5,3.5H145.75z M203.743,69.75H145.75c-3.584,0-6.5,2.916-6.5,6.5v38.25c0,3.584,2.916,6.5,6.5,6.5h57.993v17.103c0,5.018-4.083,9.1-9.1,9.1 H61.357c-5.018,0-9.1-4.082-9.1-9.1V46.911h151.485V69.75z M61.357,150.203h133.285c6.672,0,12.1-5.428,12.1-12.1V121h17.479 c1.289,0,2.488-0.382,3.5-1.031v51.678c0,2.071-1.685,3.755-3.756,3.755H32.035c-2.071,0-3.756-1.685-3.756-3.755V59.87 c0-2.071,1.685-3.756,3.756-3.756h17.223v81.989C49.257,144.775,54.686,150.203,61.357,150.203z M227.721,70.781 c-1.012-0.65-2.211-1.031-3.5-1.031h-17.479V56.114h17.223c2.071,0,3.756,1.685,3.756,3.756V70.781z M61.357,17.86h133.285 c5.018,0,9.1,4.083,9.1,9.1v16.951H52.257V26.96C52.257,21.942,56.34,17.86,61.357,17.86z M19.87,183.647V59.871 c0-6.708,5.457-12.165,12.165-12.165h17.223v5.409H32.035c-3.725,0-6.756,3.031-6.756,6.756v111.777 c0,3.725,3.031,6.755,6.756,6.755h191.931c3.725,0,6.756-3.03,6.756-6.755V114.5V76.25V59.87c0-3.725-3.031-6.756-6.756-6.756 h-17.223v-5.409h17.223c6.708,0,12.165,5.457,12.165,12.165v123.776c0,6.708-5.457,12.165-12.165,12.165H155.33H100.67H32.035 C25.327,195.812,19.87,190.354,19.87,183.647z M102.17,198.812h51.659v19.158H102.17V198.812z M91.309,220.97h9.362h54.659h9.362 v6.197H91.309V220.97z"></path><path fill="#3f3679" d="M128,193.107c3.309,0,6-2.691,6-6s-2.691-6-6-6s-6,2.691-6,6S124.691,193.107,128,193.107z M128,184.107 c1.654,0,3,1.346,3,3s-1.346,3-3,3s-3-1.346-3-3S126.346,184.107,128,184.107z"></path><path fill="#3f3679" d="M69.682,37.227c3.497,0,6.342-2.845,6.342-6.342s-2.845-6.342-6.342-6.342s-6.342,2.845-6.342,6.342 S66.185,37.227,69.682,37.227z M69.682,27.543c1.843,0,3.342,1.499,3.342,3.342s-1.499,3.342-3.342,3.342 s-3.342-1.499-3.342-3.342S67.839,27.543,69.682,27.543z"></path><path fill="#3f3679" d="M88.332,37.227c3.497,0,6.342-2.845,6.342-6.342s-2.845-6.342-6.342-6.342s-6.342,2.845-6.342,6.342 S84.834,37.227,88.332,37.227z M88.332,27.543c1.843,0,3.342,1.499,3.342,3.342s-1.499,3.342-3.342,3.342 s-3.342-1.499-3.342-3.342S86.489,27.543,88.332,27.543z"></path><path fill="#3f3679" d="M106.981,37.227c3.497,0,6.342-2.845,6.342-6.342s-2.845-6.342-6.342-6.342s-6.342,2.845-6.342,6.342 S103.484,37.227,106.981,37.227z M106.981,27.543c1.843,0,3.342,1.499,3.342,3.342s-1.499,3.342-3.342,3.342 s-3.342-1.499-3.342-3.342S105.138,27.543,106.981,27.543z"></path><path fill="#3f3679" d="M126.206,36.392h61.265c2.861,0,5.189-2.328,5.189-5.189s-2.328-5.189-5.189-5.189h-61.265 c-2.861,0-5.189,2.328-5.189,5.189S123.345,36.392,126.206,36.392z M126.206,29.014h61.265c1.207,0,2.189,0.982,2.189,2.189 s-0.982,2.189-2.189,2.189h-61.265c-1.207,0-2.189-0.982-2.189-2.189S124.999,29.014,126.206,29.014z"></path><path fill="#3f3679" d="M59.336,76.868h2.965c0.692,0,1.465,0.995,1.465,2.326v8.481c0,2.937,1.96,5.326,4.37,5.326h2.87 c0.829,0,1.5-0.671,1.5-1.5s-0.671-1.5-1.5-1.5h-2.87c-0.646,0-1.37-0.995-1.37-2.326v-8.481c0-1.503-0.529-2.857-1.372-3.826 c0.843-0.969,1.372-2.323,1.372-3.826V63.06c0-1.332,0.723-2.326,1.37-2.326h2.87c0.829,0,1.5-0.671,1.5-1.5s-0.671-1.5-1.5-1.5 h-2.87c-2.409,0-4.37,2.389-4.37,5.326v8.481c0,1.332-0.773,2.326-1.465,2.326h-2.965c-0.829,0-1.5,0.671-1.5,1.5 S58.507,76.868,59.336,76.868z"></path><path fill="#3f3679" d="M127.458,105.117c0-2.937-1.96-5.326-4.37-5.326h-2.87c-0.829,0-1.5,0.671-1.5,1.5s0.671,1.5,1.5,1.5h2.87 c0.646,0,1.37,0.995,1.37,2.326v8.481c0,1.503,0.529,2.857,1.372,3.826c-0.843,0.969-1.372,2.323-1.372,3.826v8.481 c0,1.331-0.723,2.326-1.37,2.326h-2.87c-0.829,0-1.5,0.671-1.5,1.5s0.671,1.5,1.5,1.5h2.87c2.409,0,4.37-2.389,4.37-5.326v-8.481 c0-1.332,0.773-2.326,1.465-2.326h2.965c0.829,0,1.5-0.671,1.5-1.5s-0.671-1.5-1.5-1.5h-2.965c-0.692,0-1.465-0.995-1.465-2.326 V105.117z"></path><path fill="#3f3679" d="M75.604,76.868h50.45c0.829,0,1.5-0.671,1.5-1.5s-0.671-1.5-1.5-1.5h-50.45c-0.829,0-1.5,0.671-1.5,1.5 S74.775,76.868,75.604,76.868z"></path><path fill="#3f3679" d="M75.604,86.237h50.45c0.829,0,1.5-0.671,1.5-1.5s-0.671-1.5-1.5-1.5h-50.45c-0.829,0-1.5,0.671-1.5,1.5 S74.775,86.237,75.604,86.237z"></path><path fill="#3f3679" d="M75.604,95.606h50.45c0.829,0,1.5-0.671,1.5-1.5s-0.671-1.5-1.5-1.5h-50.45c-0.829,0-1.5,0.671-1.5,1.5 S74.775,95.606,75.604,95.606z"></path><path fill="#3f3679" d="M107.829,106.746H65.171c-0.829,0-1.5,0.671-1.5,1.5s0.671,1.5,1.5,1.5h42.658c0.829,0,1.5-0.671,1.5-1.5 S108.658,106.746,107.829,106.746z"></path><path fill="#3f3679" d="M107.829,115.924H65.171c-0.829,0-1.5,0.671-1.5,1.5s0.671,1.5,1.5,1.5h42.658c0.829,0,1.5-0.671,1.5-1.5 S108.658,115.924,107.829,115.924z"></path><path fill="#3f3679" d="M107.829,125.102H65.171c-0.829,0-1.5,0.671-1.5,1.5s0.671,1.5,1.5,1.5h42.658c0.829,0,1.5-0.671,1.5-1.5 S108.658,125.102,107.829,125.102z"></path></g><g><path fill="#3f3679" d="M170.03,83.751c1.285,1.03,2.325,2.256,3.121,3.678c1.022,1.826-0.233,4.085-2.325,4.085h-1.872 c-0.934,0-1.771-0.504-2.286-1.283c-0.482-0.729-1.087-1.339-1.814-1.83c-1.119-0.755-2.447-1.132-3.983-1.132 c-2.02,0-3.653,0.742-4.892,2.223c-1.241,1.484-1.861,3.465-1.861,5.945c0,2.481,0.62,4.456,1.861,5.923 c1.239,1.471,2.871,2.205,4.892,2.205c1.537,0,2.865-0.377,3.983-1.132c0.725-0.489,1.328-1.092,1.81-1.808 c0.517-0.769,1.349-1.266,2.276-1.266h1.872c2.094,0,3.354,2.264,2.324,4.088c-0.794,1.406-1.829,2.624-3.106,3.655 c-2.386,1.928-5.398,2.891-9.038,2.891c-2.777,0-5.216-0.612-7.319-1.84c-2.103-1.226-3.727-2.945-4.874-5.155 c-1.145-2.21-1.718-4.732-1.718-7.562c0-2.83,0.573-5.351,1.718-7.562c1.147-2.21,2.771-3.927,4.874-5.155 c2.103-1.226,4.541-1.84,7.319-1.84C164.631,80.879,167.644,81.835,170.03,83.751z"></path><path fill="#3f3679" d="M197.928,105.869c-0.767,1.267-1.899,2.277-3.396,3.032c-1.494,0.755-3.31,1.132-5.436,1.132 c-3.21,0-5.851-0.782-7.927-2.345c-0.972-0.732-1.738-1.601-2.296-2.606c-0.982-1.767,0.384-3.946,2.406-3.946h1.729 c1.031,0,2.069,0.507,2.494,1.446c0.192,0.425,0.453,0.792,0.783,1.102c0.661,0.62,1.502,0.93,2.529,0.93 c0.888,0,1.589-0.244,2.099-0.729c0.513-0.484,0.77-1.132,0.77-1.94c0-0.729-0.237-1.334-0.708-1.82 c-0.471-0.485-1.056-0.884-1.761-1.193c-0.698-0.309-1.67-0.681-2.909-1.112c-1.807-0.62-3.282-1.219-4.428-1.8 c-1.147-0.579-2.131-1.441-2.953-2.587c-0.823-1.147-1.232-2.636-1.232-4.469c0-1.698,0.431-3.167,1.293-4.408 c0.862-1.239,2.055-2.19,3.579-2.85c1.524-0.661,3.269-0.992,5.237-0.992c3.18,0,5.708,0.755,7.58,2.266 c0.819,0.659,1.483,1.427,1.991,2.302c1.01,1.742-0.391,3.924-2.405,3.924h-1.961c-0.972,0-1.907-0.504-2.341-1.374 c-0.164-0.33-0.371-0.62-0.622-0.87c-0.553-0.551-1.3-0.828-2.243-0.828c-0.81,0-1.463,0.216-1.961,0.647 c-0.499,0.431-0.749,1.065-0.749,1.9c0,0.675,0.222,1.247,0.668,1.718c0.444,0.472,1.004,0.857,1.678,1.153 c0.673,0.296,1.645,0.675,2.909,1.132c1.836,0.62,3.33,1.232,4.489,1.84c1.158,0.607,2.159,1.491,2.995,2.649 c0.836,1.16,1.254,2.669,1.254,4.528C199.084,103.213,198.699,104.602,197.928,105.869z"></path><path fill="#3f3679" d="M222.313,105.869c-0.77,1.267-1.902,2.277-3.396,3.032c-1.497,0.755-3.31,1.132-5.44,1.132 c-3.208,0-5.848-0.782-7.927-2.345c-0.972-0.733-1.736-1.601-2.295-2.607c-0.982-1.768,0.384-3.945,2.406-3.945h1.73 c1.03,0,2.069,0.507,2.493,1.446c0.192,0.425,0.452,0.792,0.783,1.102c0.661,0.62,1.504,0.93,2.527,0.93 c0.892,0,1.589-0.244,2.103-0.729c0.513-0.484,0.77-1.132,0.77-1.94c0-0.729-0.237-1.334-0.711-1.82 c-0.471-0.485-1.056-0.884-1.757-1.193c-0.701-0.309-1.672-0.681-2.909-1.112c-1.81-0.62-3.284-1.219-4.429-1.8 c-1.145-0.579-2.132-1.441-2.955-2.587c-0.823-1.147-1.231-2.636-1.231-4.469c0-1.698,0.431-3.167,1.293-4.408 c0.862-1.239,2.057-2.19,3.577-2.85c1.527-0.661,3.271-0.992,5.239-0.992c3.179,0,5.706,0.755,7.582,2.266 c0.818,0.659,1.481,1.427,1.989,2.303c1.009,1.743-0.392,3.923-2.405,3.923h-1.958c-0.972,0-1.907-0.504-2.341-1.374 c-0.164-0.33-0.371-0.62-0.622-0.87c-0.553-0.551-1.303-0.828-2.244-0.828c-0.81,0-1.461,0.216-1.961,0.647 c-0.5,0.431-0.75,1.065-0.75,1.9c0,0.675,0.224,1.247,0.671,1.718c0.441,0.472,1,0.857,1.678,1.153 c0.671,0.296,1.642,0.675,2.909,1.132c1.833,0.62,3.33,1.232,4.489,1.84c1.158,0.607,2.159,1.491,2.995,2.649 c0.833,1.16,1.25,2.669,1.25,4.528C223.464,103.213,223.083,104.602,222.313,105.869z"></path></g></svg>