<svg xmlns="http://www.w3.org/2000/svg" x="0px" y="0px"
width="67" height="67"
viewBox="0 0 135 135"
style=" fill:#000000;"><path fill="#bcdae6" d="M119.563942,26.9006176v65.1500244c0,1.8900146-1.0999756,3.5200195-2.6999512,4.2799072 c-0.6100464,0.3000488-1.3000488,0.460083-2.0300293,0.460083H20.1339531c-2.6099854,0-4.7299805-2.1199951-4.7299805-4.7399902 V26.9006176c0-2.6199951,2.1199951-4.7399902,4.7299805-4.7399902h94.7000122 C117.4439468,22.1606274,119.563942,24.2806225,119.563942,26.9006176z"></path><path d="M119.5692825,26.9002876V92.060318c0,2.6099854-2.1300049,4.7299805-4.7399902,4.7299805H20.129282 c-2.4400024,0-4.4499521-1.8400879-4.7099619-4.2199707h29.5100098c38.5999756,0,69.8999634-31.300045,69.8999634-69.9000244 c0-0.1699829-0.0100098-0.3400269-0.0299683-0.5100098h0.0299683 C117.4392776,22.1602974,119.5692825,24.2802925,119.5692825,26.9002876z" opacity=".02"></path><path d="M116.8639908,96.3305511c-0.6100464,0.3000488-1.3000488,0.460083-2.0300293,0.460083H93.0539932l-5.5700073-5.5699463 c-2.210022-2.210083-3.0700073-5.2700195-2.5800171-8.130127l-0.4699707-0.4699707 c-4.8200073,3.3200684-10.5100098,5.1000977-16.4700317,5.1000977c-7.7799644,0-15.090023-3.0300293-20.5999718-8.5300293 c-5.5-5.5100098-8.5400391-12.8300781-8.5400391-20.6101074c0-7.7799072,3.0400391-15.0998535,8.5400391-20.5998535 c5.5099487-5.5100098,12.8200073-8.540041,20.5999718-8.540041c7.7800293,0,15.0999756,3.0300312,20.6099854,8.540041 c10.0700073,10.0699463,11.210022,25.7199707,3.4400024,37.0599365l0.4700317,0.4699707 C92.9939957,75.420639,93.5139542,75.3806,94.0439835,75.3806c2.4799805,0,4.8099976,0.9599609,6.5700073,2.7199707 L114.393959,91.8806C115.6339493,93.1205902,116.4839859,94.6606293,116.8639908,96.3305511z" opacity=".05"></path><path fill="#fff" d="M118.9777603,24.6253586c-0.6729736-0.3601456-1.4405823-0.5686188-2.2557373-0.5686188H22.0240631 c-2.6157684,0-4.7386932,2.1229248-4.7386932,4.7386913v65.1570206c0,0.8150406,0.2084751,1.5827103,0.5686207,2.2556229 c-1.4689846-0.8056107-2.464098-2.3598633-2.464098-4.1511002V26.8999538c0-2.6157665,2.1229248-4.7386913,4.7386932-4.7386913 h94.6979599C116.617897,22.1612625,118.1720886,23.1563759,118.9777603,24.6253586z" opacity=".4"></path><path fill="#bcdae6" d="M85.5604324,112.8313904H49.3946953l2.3883209-2.3883209 c2.9474525-2.9474564,4.8429298-6.7384109,5.4494972-10.804184c0.1326981-0.9382553,0.2085304-1.885994,0.2085304-2.8432159 h20.0730934c0,0.957222,0.0757828,1.9049606,0.2084808,2.8432159c0.2369308,1.563736,0.6634216,3.0896378,1.2605057,4.5396423 c0.966713,2.3219757,2.37883,4.4543839,4.1889877,6.2645416L85.5604324,112.8313904z"></path><path d="M77.7226181,99.6388855H57.2325134c0.1326981-0.9382553,0.2085304-1.885994,0.2085304-2.8432159h20.0730934 C77.5141373,97.7528915,77.58992,98.7006302,77.7226181,99.6388855z" opacity=".1"></path><rect width="94.7" height="55.31" x="20.124" y="26.901" fill="#fff"></rect><path d="M104.7239761,82.2106781H50.9139824c-1.25-0.9000244-2.4400024-1.9100342-3.5499878-3.0200195 c-5.5-5.5100098-8.5400391-12.8300781-8.5400391-20.6101074c0-7.7799072,3.0400391-15.0998535,8.5400391-20.5998535 c5.5099487-5.5100098,12.8200073-8.540041,20.5999718-8.540041c7.7800293,0,15.0999756,3.0300312,20.6099854,8.540041 c10.0700073,10.0699463,11.210022,25.7199707,3.4400024,37.0599365l0.4700317,0.4699707 C92.9939957,75.420639,93.5139542,75.3806,94.0439835,75.3806c2.4799805,0,4.8099976,0.9599609,6.5700073,2.7199707 L104.7239761,82.2106781z" opacity=".05"></path><g opacity=".4"><polygon fill="#d4f4ff" points="93.8152542,26.8999538 64.9471207,82.2099609 31.5393353,82.2099609 60.4074707,26.8999538"></polygon><polygon fill="#d4f4ff" points="103.4157944,26.8999538 74.5477142,82.2099609 69.5720901,82.2099609 98.4401627,26.8999538"></polygon></g><circle cx="67.492" cy="91.913" r="1.895" fill="#fff"></circle><path fill="#76819f" d="M76.433136,54.4509888H59.520771c0-1.1197243,0.2149773-2.194622,0.6180916-3.1709938 c1.2451477-3.0994759,4.2818604-5.285244,7.838089-5.285244c2.32901,0,4.4520645,0.9495811,5.9748535,2.4813347 c0.7972565,0.7884026,1.4332809,1.7378731,1.8632355,2.7949448 C76.2181549,52.2474022,76.433136,53.3222961,76.433136,54.4509888z"></path><path d="M76.433136,54.4509888H59.520771c0-1.1197243,0.2149773-2.194622,0.6180916-3.1709938 c2.6604996-0.250843,5.3388748-0.3762665,7.9545441-0.3762665c2.5798569,0,5.1775894,0.1254234,7.7216339,0.3673019 C76.2181549,52.2474022,76.433136,53.3222961,76.433136,54.4509888z" opacity=".05"></path><path fill="#ff4b3a" d="M76.2084427,54.0033836c1.1852875,0.1217194,2.0057526,1.2469482,1.7959671,2.419857l-1.2355347,8.8687439 c-0.7671432,4.2488098-4.4699478,7.3467255-8.7775497,7.3467255h-0.0147705 c-4.3223686,0-8.0251732-3.0979156-8.7923164-7.3467255l-1.2336388-8.8581619 c-0.2104874-1.1768265,0.6201935-2.3043022,1.8097572-2.4233131 C65.4362946,53.4426613,70.912384,53.4595146,76.2084427,54.0033836z"></path><path fill="#fc6868" d="M78.0007553,56.4217758l-0.098526,0.6808014 c-0.2687225-0.6987343-0.8957825-1.2273254-1.6930389-1.3079147 c-5.2940445-0.5464134-10.7762833-0.5643463-16.4465408,0.0089684 c-0.7972603,0.0805893-1.4421959,0.6091766-1.7109756,1.3079147l-0.0985222-0.6808014 c-0.2149773-1.1735268,0.6180916-2.3022232,1.8094978-2.4186783c5.6702576-0.5733147,11.1524963-0.5553818,16.4465408-0.0089684 C77.3916321,54.128521,78.2157288,55.2482491,78.0007553,56.4217758z"></path><path d="M76.692894,65.6214752c-0.8868179,4.0847092-4.5147247,7.0139313-8.6980057,7.0139313h-0.0179367 c-4.2191505,0-7.838089-2.9381943-8.7249069-7.031868c1.8363419,2.9292221,5.0880356,4.8371353,8.7249069,4.8371353h0.0179367 C71.6048584,70.4406738,74.8565521,68.5417328,76.692894,65.6214752z" opacity=".05"></path><path fill="#384b7d" d="M65.9778366,49.722496c0,0.7065659-0.5709305,1.2774086-1.2774048,1.2774086 s-1.2845078-0.5708427-1.2845078-1.2774086c0-0.7064743,0.5780334-1.2773209,1.2845078-1.2773209 S65.9778366,49.0160217,65.9778366,49.722496z"></path><path fill="#fff" d="M64.6974182,49.3390541c0,0.2118187-0.1711502,0.382946-0.3829422,0.382946 s-0.3850746-0.1711273-0.3850746-0.382946c0-0.2117882,0.1732826-0.3829193,0.3850746-0.3829193 S64.6974182,49.1272659,64.6974182,49.3390541z"></path><g><path fill="#384b7d" d="M72.5379791,49.722496c0,0.7065659-0.5709305,1.2774086-1.2774048,1.2774086 c-0.7064819,0-1.2845078-0.5708427-1.2845078-1.2774086c0-0.7064743,0.5780258-1.2773209,1.2845078-1.2773209 C71.9670486,48.4451752,72.5379791,49.0160217,72.5379791,49.722496z"></path><path fill="#fff" d="M71.2575607,49.3390541c0,0.2118187-0.1711578,0.382946-0.3829498,0.382946 c-0.2117844,0-0.3850708-0.1711273-0.3850708-0.382946c0-0.2117882,0.1732864-0.3829193,0.3850708-0.3829193 C71.0864029,48.9561348,71.2575607,49.1272659,71.2575607,49.3390541z"></path></g><g><path fill="#76819f" d="M50.9748611,37.6894302l2.8453827,2.8453827l-3.8989792,3.898941l-2.8453827-2.8453827 c-1.0766678-1.076664-1.076664-2.8222847,0.0000076-3.8989449l0.0000076-0.0000038 C48.1525688,36.6127586,49.8981934,36.6127625,50.9748611,37.6894302z"></path><rect width="4.717" height="9.052" x="85.434" y="73.88" fill="#76819f" transform="rotate(-45 87.792 78.406)"></rect><rect width="4.717" height="9.048" x="85.434" y="73.878" fill="#76819f" transform="rotate(-45 87.793 78.402)"></rect><path d="M86.2614059,73.5356903l3.1225815,3.1225815c-0.5013199,0.5994339-1.0299454,1.1825333-1.5912628,1.7438507 c-0.5612946,0.5612869-1.1444016,1.0899048-1.7438736,1.5912552l-3.1225815-3.1225815L86.2614059,73.5356903z" opacity=".1"></path><path fill="#00ffc1" d="M98.4892883,80.2177048l13.7801132,13.7801056 c2.4529037,2.4529037,2.4528961,6.4298401-0.0000229,8.8827362l-0.002327,0.002327 c-2.452919,2.4528961-6.4298706,2.4528809-8.882782-0.0000229l-13.7801132-13.780098 c-2.4529037-2.4529114-2.4528961-6.4298477,0.0000229-8.8827438l0.002327-0.0023193 C92.0594254,77.7647934,96.0363846,77.764801,98.4892883,80.2177048z"></path><path fill="#fff" d="M101.5895996,83.3157654c-2.4541397-2.4540482-6.4384918-2.4540558-8.8781815-0.0000229h-0.0144501 c-2.4540558,2.4541245-2.4540634,6.4384537-0.0000153,8.8781357l-3.0892334-3.0893173 c-2.4541321-2.4541321-2.4541245-6.4383774,0.0000153-8.8780441v-0.0144501 c2.4540558-2.4541245,6.4239578-2.4541168,8.8780899,0.0000153L101.5895996,83.3157654z" opacity=".2"></path><path d="M100.2448425,99.7273331c2.4541397,2.4540405,6.4384918,2.4540482,8.8781815,0.0000153h0.0144501 c2.4540558-2.4541168,2.4540634-6.4384537,0.0000153-8.8781357l3.0892334,3.089325 c2.4541397,2.4541321,2.4541321,6.4383698-0.0000153,8.8780441v0.0144501 c-2.4540558,2.4541245-6.4239578,2.4541092-8.8780899-0.0000229L100.2448425,99.7273331z" opacity=".1"></path><path fill="#52eef8" d="M49.4878349,40.0972595C39.275341,50.3096581,39.2753334,66.8544617,49.4877777,77.0669022 c10.2069893,10.2069855,26.7518463,10.207016,36.9643402-0.0053787 c10.207077-10.2069778,10.2071152-26.7517471,0.0001297-36.9587326 C76.2397995,29.8903522,59.694912,29.8902855,49.4878349,40.0972595z M83.0406952,73.6501083 c-8.3269272,8.3268509-21.8200455,8.3268204-30.1414795,0.0053864 c-8.3269234-8.3269196-8.326889-21.8199615,0.000042-30.1468124 c8.3215103-8.3214302,21.8146248-8.3214035,30.141552,0.0055161 C91.3622437,51.8356285,91.3622055,65.3286743,83.0406952,73.6501083z"></path><path fill="#fff" d="M69.2970581,32.4734116c-6.2343292,0.3160362-12.386879,2.8609467-17.1552544,7.6292763 c-10.207077,10.206974-10.207119,26.7517509-0.0000954,36.9587669 c4.7683563,4.7683487,10.9208908,7.3132858,17.1551895,7.6293793 c-7.1280365,0.359642-14.3704834-2.1852951-19.8091202-7.6239319 C39.2753334,66.8544617,39.275341,50.3096581,49.4878349,40.0972595 C54.9265327,34.6586151,62.1689949,32.1137085,69.2970581,32.4734116z" opacity=".2"></path><g><path fill="#384b7d" d="M76.3916016,106.6918945h-9.1230469c-0.2763672,0-0.5,0.2236328-0.5,0.5s0.2236328,0.5,0.5,0.5h9.1230469 c0.2763672,0,0.5-0.2236328,0.5-0.5S76.6679688,106.6918945,76.3916016,106.6918945z"></path><path fill="#384b7d" d="M64.7685547,106.6918945h-6.3398438c-0.2763672,0-0.5,0.2236328-0.5,0.5s0.2236328,0.5,0.5,0.5h6.3398438 c0.2763672,0,0.5-0.2236328,0.5-0.5S65.0449219,106.6918945,64.7685547,106.6918945z"></path><path fill="#384b7d" d="M131.4785156,112.3344727c-0.2763672,0-0.5,0.2236328-0.5,0.5s0.2236328,0.5,0.5,0.5h0.0869141 c0.2763672,0,0.4560547-0.2236328,0.4560547-0.5S131.7548828,112.3344727,131.4785156,112.3344727z"></path><path fill="#384b7d" d="M130.0654297,112.3344727H92.5292969c-0.2763672,0-0.5,0.2236328-0.5,0.5s0.2236328,0.5,0.5,0.5 h37.5361328c0.2763672,0,0.5-0.2236328,0.5-0.5S130.3417969,112.3344727,130.0654297,112.3344727z"></path><path fill="#384b7d" d="M89.5292969,112.3344727h-3.7568359l-2.2480469-2.2480469 c-3.4310303-3.4311523-5.3551636-7.9584961-5.4822998-12.7910156h19.0471802l5.940979,5.9414063 c2.6457825,2.6438293,6.9462433,2.6436005,9.5927734-0.0029297c1.6132202-1.6132813,2.2363892-3.84375,1.8806763-5.9384766 h0.3204956c2.8886719,0,5.2392578-2.3505859,5.2392578-5.2402344V26.8950195 c0-2.8837891-2.3505859-5.2294922-5.2392578-5.2294922H20.1337891c-2.8896484,0-5.2402344,2.3457031-5.2402344,5.2294922 v65.1601563c0,2.8896484,2.3505859,5.2402344,5.2402344,5.2402344h36.7801514 c-0.1271362,4.831543-2.0512695,9.3591309-5.4822998,12.7910156l-2.2480469,2.2480469h-4.2792969 c-0.2763672,0-0.5,0.2236328-0.5,0.5s0.2236328,0.5,0.5,0.5c14.8678322,0,29.7694016,0,44.625,0 c0.2763672,0,0.5-0.2236328,0.5-0.5S89.8056641,112.3344727,89.5292969,112.3344727z M111.9130859,102.5297852 c-2.2539063,2.2539063-5.921875,2.2539063-8.1757813,0L89.9580078,88.7495117 c-2.2832413-2.2832413-2.2332611-5.9419632,0.0019531-8.1787109c2.251358-2.251358,5.9218674-2.2539139,8.1757813,0 l12.5668945,12.5668945l-2.9399414,2.9399414c-0.1953125,0.1953125-0.1953125,0.5117188,0,0.7070313 c0.1953049,0.1953049,0.5117111,0.1953201,0.7070313,0l2.9399414-2.9399414l0.5063477,0.5063477 c1.0917969,1.0917969,1.6933594,2.5439453,1.6933594,4.0878906S113.0078125,101.4350586,111.9130859,102.5297852z M98.8427734,79.8637695c-1.9197388-1.9196777-4.7124023-2.4375-7.1119995-1.5681152l-3.0106201-3.010498 c3.8134155-4.7194824,5.8882446-10.5507813,5.8882446-16.7026367c0-7.1152344-2.7705078-13.8046875-7.8027344-18.8369141 S75.0839844,31.9428711,67.96875,31.9428711c-6.0167236,0-11.7246704,1.987915-16.3878784,5.642334l-0.2537231-0.2536621 c-1.2207031-1.2207031-3.3837891-1.2226563-4.6083984,0.0019531c-1.2636719,1.2744141-1.2626953,3.3408203,0.0019531,4.6054688 l0.2545776,0.2550049C38.8119507,52.6376953,39.5259399,67.8125,49.1318359,77.418457 c1.7186279,1.7189941,3.6181641,3.1469727,5.6343994,4.296875H20.6337891V27.3950195h93.6904297V81.715332h-13.6298828 L98.8427734,79.8637695z M88.1242065,81.3688965l-2.6850586-2.6850586 c1.0474396-0.9116974,1.7199097-1.5841522,2.6333618-2.6323242l2.6852417,2.6853027 C89.6556473,79.3481369,88.763382,80.2177353,88.1242065,81.3688965z M47.6089478,41.4135742l-0.1812134-0.1816406 c-0.8759766-0.8759766-0.8759766-2.3095703,0-3.1933594c0.8427734-0.8417969,2.3515625-0.8417969,3.1923828,0 l0.1804199,0.1804199c-0.572876,0.4846191-1.132019,0.9899902-1.6687012,1.5266113 C48.5941162,40.2834473,48.0910034,40.8425293,47.6089478,41.4135742z M49.8388672,76.7114258 c-9.9960938-9.9960938-9.9960938-26.2617188,0-36.2587891c4.8427734-4.8427734,11.2822266-7.5097656,18.1298828-7.5097656 s13.2871094,2.6669922,18.1298828,7.5097656s7.5097656,11.2822266,7.5097656,18.1298828 s-2.6669922,13.2871094-7.5097656,18.1298828C76.0996094,86.7094727,59.8339844,86.706543,49.8388672,76.7114258z M84.6730347,79.3317871l2.383606,2.3835449h-5.8853149C82.3858643,81.0227051,83.5581055,80.2304688,84.6730347,79.3317871z M114.8242188,96.2954102h-0.571228c-0.3214722-0.9692383-0.8601685-1.8815918-1.6299438-2.6513672l-0.8187256-0.8188477 c-0.0123901-0.015625-0.0182495-0.034668-0.0328369-0.0493164s-0.0335693-0.0205078-0.0494385-0.0327148l-5.2073975-5.2075195 h12.5488281v4.5195313C119.0634766,94.3930664,117.1621094,96.2954102,114.8242188,96.2954102z M20.1337891,22.6655273 h94.6904297c2.3378906,0,4.2392578,1.8974609,4.2392578,4.2294922v59.640625h-13.5488281l-3.8203125-3.8203125h13.1298828 c0.2763672,0,0.5-0.2236328,0.5-0.5V26.8950195c0-0.2763672-0.2236328-0.5-0.5-0.5H20.1337891 c-0.2763672,0-0.5,0.2236328-0.5,0.5V82.215332c0,0.2763672,0.2236328,0.5,0.5,0.5h36.5547485 c7.0493622,3.2862396,15.3475418,3.3619766,22.5601807,0h8.3034668 c-0.3704834,1.2438965-0.3755493,2.5732422-0.019104,3.8203125H15.8935547v-59.640625 C15.8935547,24.5629883,17.7958984,22.6655273,20.1337891,22.6655273z M15.8935547,92.0551758v-4.5195313h72.019165 c0.324585,0.6948242,0.7655029,1.3481445,1.3382568,1.9208984l6.8383789,6.8388672 c-47.7108459-0.003746,1.3521271-0.0052643-75.9555664,0C17.7958984,96.2954102,15.8935547,94.3930664,15.8935547,92.0551758z M50.5976563,112.3344727l1.5410156-1.5410156c3.6211548-3.6220703,5.666748-8.3979492,5.7936401-13.4980469h19.0914307 c0.1268921,5.1010742,2.1724854,9.8769531,5.7936401,13.4980469l1.5410156,1.5410156H50.5976563z"></path><path fill="#384b7d" d="M42.4042969,112.3344727H6.7060547c-0.2763672,0-0.5,0.2236328-0.5,0.5s0.2236328,0.5,0.5,0.5h35.6982422 c0.2763672,0,0.5-0.2236328,0.5-0.5S42.6806641,112.3344727,42.4042969,112.3344727z"></path><path fill="#384b7d" d="M4.2060547,112.3344727H3.4785156c-0.2763672,0-0.5,0.2236328-0.5,0.5s0.2236328,0.5,0.5,0.5h0.7275391 c0.2763672,0,0.5-0.2236328,0.5-0.5S4.4824219,112.3344727,4.2060547,112.3344727z"></path><path fill="#384b7d" d="M67.4921875,94.3081055c1.3212891,0,2.3955078-1.0742188,2.3955078-2.3955078 s-1.0742188-2.3955078-2.3955078-2.3955078s-2.3955078,1.0742188-2.3955078,2.3955078 S66.1708984,94.3081055,67.4921875,94.3081055z M67.4921875,90.5170898c0.7695313,0,1.3955078,0.6259766,1.3955078,1.3955078 c0,0.7822266-0.6132813,1.3955078-1.3955078,1.3955078c-0.7695313,0-1.3955078-0.6259766-1.3955078-1.3955078 S66.7226563,90.5170898,67.4921875,90.5170898z"></path><path fill="#384b7d" d="M67.9912109,73.1391602c3.4473267,0,6.5141602-1.8669434,8.1585083-4.7285156 c0.0031128,0.0009766,0.0053101,0.0031738,0.0084839,0.0039063l3.6337891,0.8164063l2.0810547,2.7490234 c0.1648941,0.2193146,0.4800644,0.2641678,0.7001953,0.0966797c0.2197266-0.1660156,0.2636719-0.4804688,0.0966797-0.7001953 l-2.1914063-2.8945313c-0.0712891-0.09375-0.1738281-0.1601563-0.2890625-0.1865234l-3.5812378-0.8054199 c0.2935181-0.6706543,0.5204468-1.3806152,0.6554565-2.1291504l0.3254395-2.3349609h3.6257324l2.8417969,2.7539063 c0.0966797,0.09375,0.2226563,0.140625,0.3476563,0.140625c0.1308594,0,0.2607422-0.0507813,0.359375-0.1523438 c0.1914063-0.1982422,0.1865234-0.5146484-0.0117188-0.7070313l-2.9873047-2.8945313 c-0.0927734-0.0898438-0.2177734-0.140625-0.3476563-0.140625h-3.6885376l0.6131592-4.3994141h3.2492065l2.0410156,2.6962891 c0.0976563,0.1298828,0.2470703,0.1982422,0.3984375,0.1982422c0.1054688,0,0.2119141-0.0332031,0.3017578-0.1015625 c0.2197266-0.1660156,0.2636719-0.4794922,0.0966797-0.7001953l-2.1904297-2.8945313 c-0.0947266-0.125-0.2421875-0.1982422-0.3984375-0.1982422h-3.3588257l0.0160522-0.1152344 c0.1259766-0.7050781-0.0498047-1.4375-0.4804688-2.0097656c-0.295105-0.3911133-0.6862183-0.6711426-1.1276855-0.8374023 c-0.2656097-3.0601234-2.0708923-5.8413162-5.0256958-7.2650146c0.0507202-2.1690674,1.0397339-4.1798096,2.7442017-5.5362549 c0.2158203-0.171875,0.2519531-0.4873047,0.0800781-0.703125c-0.1728516-0.2167969-0.4882813-0.2509766-0.703125-0.0800781 c-1.8376465,1.4632568-2.9393921,3.5964355-3.0985718,5.916626c-1.853241-0.6390648-3.8267822-0.6921844-5.8189697-0.0090332 c-0.161438-2.3167725-1.2628174-4.446167-3.0980835-5.9075928c-0.2138672-0.1708984-0.5302734-0.1367188-0.703125,0.0800781 c-0.171875,0.2158203-0.1357422,0.53125,0.0800781,0.703125c1.7015381,1.3540039,2.6897583,3.3603516,2.7435913,5.5251465 c-2.7685547,1.3349609-4.7410889,4.0507813-5.0201416,7.2880859c-0.44104,0.1688232-0.8370361,0.4506836-1.1277466,0.8352051 c-0.4326172,0.5722656-0.609375,1.3056641-0.4863281,1.9921875l0.0171509,0.1230469h-3.3569946 c-0.15625,0-0.3037109,0.0732422-0.3984375,0.1982422l-2.1904373,2.8945313 c-0.1669846,0.2207031-0.1230392,0.5341797,0.0966873,0.7001953c0.0898438,0.0683594,0.1962891,0.1015625,0.3017578,0.1015625 c0.1513672,0,0.3007813-0.0683594,0.3984375-0.1982422l2.0410156-2.6962891h3.2473755l0.6131592,4.3994141h-3.68573 c-0.1298828,0-0.2548828,0.0507813-0.3476563,0.140625l-2.9882813,2.8945313 C51.0048828,65.253418,51,65.5698242,51.1914063,65.7680664c0.1946564,0.2004395,0.5110207,0.2017899,0.7070313,0.0117188 l2.8427734-2.7539063h3.6229858l0.328186,2.3544922c0.1338501,0.7414551,0.3591309,1.4453125,0.6503906,2.1105957 l-3.5771484,0.8044434c-0.1152344,0.0263672-0.2177734,0.0927734-0.2890625,0.1865234l-2.1914063,2.8945313 c-0.1669922,0.2197266-0.1230469,0.5341797,0.0966797,0.7001953c0.2201118,0.1674728,0.5352859,0.1226501,0.7001953-0.0966797 l2.0810547-2.7490234l3.6337891-0.8164063c0.0019531-0.0004883,0.0033569-0.0019531,0.0053101-0.0024414 C61.4469604,71.269043,64.5233765,73.1391602,67.9912109,73.1391602z M67.9736328,46.4956055 c3.9627914,0,7.4036865,2.9491043,7.8956299,6.980957c-5.1511841-0.503418-10.4523926-0.5014648-15.7791748,0.0080566 C60.5705566,49.5214844,63.9206543,46.4956055,67.9736328,46.4956055z M59.8105469,54.5073242 c5.5188904-0.5503311,11.0188065-0.5541382,16.3466797-0.0068359c0.4238281,0.0439453,0.8007813,0.2578125,1.0605469,0.6035156 c0.2646484,0.3505859,0.3720703,0.7998047,0.2919922,1.25l-1.2334061,8.8486328 c-0.7246017,4.0195313-4.2099533,6.9365234-8.2997971,6.9365234c-4.0839844,0-7.5752029-2.9169922-8.296875-6.9169922 l-1.2373047-8.8759766C58.2864952,55.473999,58.8933296,54.5994644,59.8105469,54.5073242z"></path><path fill="#384b7d" d="M67.9775391,68.6137695c0.2763672,0,0.5-0.2236328,0.5-0.5v-9.9980469c0-0.2763672-0.2236328-0.5-0.5-0.5 s-0.5,0.2236328-0.5,0.5v9.9980469C67.4775391,68.3901367,67.7011719,68.6137695,67.9775391,68.6137695z"></path><path fill="#384b7d" d="M83.3925781,74.0063477c8.5039063-8.5048828,8.5039063-22.3427734,0-30.8476563 c-8.5039063-8.5039063-22.34375-8.5039063-30.8476563,0c-8.5039063,8.5048828-8.5039063,22.3427734,0,30.8476563 C61.0485992,82.510025,74.8884277,82.510498,83.3925781,74.0063477z M53.2519531,43.8657227 c4.0576172-4.0566406,9.3867188-6.0849609,14.7167969-6.0849609s10.6591797,2.0283203,14.7167969,6.0849609 c8.1142578,8.1152344,8.1142578,21.3183594,0,29.4335938c-8.1142578,8.1142578-21.3193359,8.1142578-29.4335938,0 C45.1376953,65.184082,45.1376953,51.980957,53.2519531,43.8657227z"></path><path fill="#384b7d" d="M105.6611328,98.1791992l-0.3134766,0.3134766c-0.1953125,0.1953125-0.1953125,0.5117188,0,0.7070313 c0.0976563,0.0976563,0.2255859,0.1464844,0.3535156,0.1464844s0.2558594-0.0488281,0.3535156-0.1464844l0.3134766-0.3134766 c0.1953125-0.1953125,0.1953125-0.5117188,0-0.7070313S105.8564453,97.9838867,105.6611328,98.1791992z"></path></g></g><g opacity=".3"><path fill="#fff" d="M83.3938599,72.5351563c-0.6699829,0.7602539-1.3999634,1.4702148-2.1900024,2.130127 c-0.7799683,0.6599121-1.6199951,1.2600098-2.5100098,1.7900391c-3.039978,1.8498535-6.6699829,2.9399414-10.7199707,2.9399414 c-1.5900269,0-3.0900269-0.1398926-4.4899902-0.4099121c-18.8000488-3.5400391-21.1700439-29.2900391-6.8800049-38.1900635 c3.0199585-1.8900146,6.7999878-3.0200195,11.3299561-3.0200195c0.8000488,0,1.6000366,0.0400391,2.3800049,0.1400146 c1.0300293,0.1099854,2.0400391,0.3000488,3.0300293,0.5700684c0.9899902,0.25,1.9500122,0.5898438,2.8699951,0.9899902 c2.4000244,1.0299072,4.5999756,2.5200195,6.4699707,4.3898926 C91.2538452,52.4353027,90.2138672,64.8752441,83.3938599,72.5351563z"></path></g><g opacity=".3"><path fill="#d4f4ff" d="M78.6938477,76.4553223c-3.039978,1.8498535-6.6699829,2.9399414-10.7199707,2.9399414 c-1.5900269,0-3.0900269-0.1398926-4.4899902-0.4099121l-6.8800049-38.1900635 c3.0199585-1.8900146,6.7999878-3.0200195,11.3299561-3.0200195c0.8000488,0,1.6000366,0.0400391,2.3800049,0.1400146 L78.6938477,76.4553223z"></path><path fill="#d4f4ff" d="M83.3938599,72.5351563c-0.6699829,0.7602539-1.3999634,1.4702148-2.1900024,2.130127 l-7.8599854-36.1799316c0.9899902,0.25,1.9500122,0.5898438,2.8699951,0.9899902L83.3938599,72.5351563z"></path></g></svg>