<svg xmlns="http://www.w3.org/2000/svg" x="0px" y="0px"
width="256" height="256"
viewBox="0 0 256 256"
style=" fill:#000000;"><g id="Layer_1"><path fill="#f0c020" d="M251.333,46.583v189.853c0,2.761-2.239,5-5,5H9.667c-2.761,0-5-2.239-5-5V46.583H251.333z"></path><path fill="#efefef" d="M90.51,146.279l-31.03-31.03c-2.54-2.53-2.54-6.65,0-9.19l31.03-31.03c0,0,0,0,0.01,0 c2.482-2.503,6.592-2.568,9.18,0c2.53,2.54,2.53,6.66,0,9.2l-26.43,26.43l26.43,26.43c2.54,2.54,2.53,6.66,0,9.2 C97.157,148.812,93.069,148.84,90.51,146.279z"></path><path fill="#efefef" d="M156.306,146.289c-2.539-2.54-2.539-6.66,0-9.2l26.431-26.43l-26.431-26.43 c-2.539-2.54-2.539-6.66,0-9.2c2.565-2.544,6.645-2.526,9.19,0l31.03,31.03c2.515,2.515,2.541,6.649,0,9.19 l-31.021,31.02c0,0.01,0,0.01-0.01,0.02C162.936,148.83,158.857,148.819,156.306,146.289z"></path><path fill="#efefef" d="M116.32,148.469c-3.39-1.062-5.355-4.67-4.27-8.14l19.49-62.63c1.066-3.437,4.656-5.333,8.14-4.28 c3.39,1.068,5.355,4.675,4.271,8.14l-19.49,62.63C123.363,147.723,119.659,149.529,116.32,148.469z"></path><path fill="#72c1e8" d="M251.333,19.561v27.022H4.667V19.561c0-2.761,2.239-5,5-5h236.667 C249.095,14.561,251.333,16.8,251.333,19.561z"></path><circle cx="23.756" cy="30.572" r="6.132" fill="#fc5d3d"></circle><circle cx="47.402" cy="30.572" r="6.132" fill="#f0c020"></circle><circle cx="71.048" cy="30.572" r="6.132" fill="#13bf6d"></circle><path fill="#f9e5af" d="M241.333,233.683H32.246c-1.381,0-2.5-1.119-2.5-2.5s1.119-2.5,2.5-2.5h206.587V60.27 c0-1.381,1.119-2.5,2.5-2.5s2.5,1.119,2.5,2.5v170.914C243.833,232.564,242.714,233.683,241.333,233.683z M22.246,233.683 h-4.622c-1.381,0-2.5-1.119-2.5-2.5s1.119-2.5,2.5-2.5h4.622c1.381,0,2.5,1.119,2.5,2.5S23.627,233.683,22.246,233.683z"></path><path d="M132.204,173.59c-1.379-2.023-4.565-1.047-4.565,1.409v37.261c0,1.381,1.119,2.5,2.5,2.5s2.5-1.119,2.5-2.5V183.1 l11.321,16.596c0.991,1.454,3.14,1.453,4.131,0l11.321-16.596v29.16c0,1.381,1.119,2.5,2.5,2.5s2.5-1.119,2.5-2.5v-37.261 c0-2.443-3.179-3.442-4.565-1.409l-13.821,20.261L132.204,173.59z"></path><path d="M91.738,172.499c-1.381,0-2.5,1.119-2.5,2.5s1.119,2.5,2.5,2.5h10.448v34.761c0,1.381,1.119,2.5,2.5,2.5 s2.5-1.119,2.5-2.5v-34.761h10.448c1.381,0,2.5-1.119,2.5-2.5s-1.119-2.5-2.5-2.5H91.738z"></path><path d="M51.594,174.999v37.261c0,1.381,1.119,2.5,2.5,2.5s2.5-1.119,2.5-2.5v-15.295h18.394v15.295c0,1.381,1.119,2.5,2.5,2.5 s2.5-1.119,2.5-2.5v-37.261c0-1.381-1.119-2.5-2.5-2.5s-2.5,1.119-2.5,2.5v16.966H56.594v-16.966c0-1.381-1.119-2.5-2.5-2.5 S51.594,173.618,51.594,174.999z"></path><path d="M176.011,172.499c-1.381,0-2.5,1.119-2.5,2.5v37.261c0,1.381,1.119,2.5,2.5,2.5h25.896c1.381,0,2.5-1.119,2.5-2.5 s-1.119-2.5-2.5-2.5h-23.396v-34.761C178.511,173.618,177.392,172.499,176.011,172.499z"></path><path d="M101.46,73.255c-3.551-3.525-9.225-3.486-12.718,0.007l-31.03,31.03c-3.528,3.528-3.51,9.23,0,12.725l31.029,31.03 c0,0,0,0,0.001,0c3.508,3.51,9.212,3.495,12.729,0.006c3.502-3.516,3.501-9.227-0.004-12.731l-24.662-24.663l24.665-24.666 C104.967,82.484,104.967,76.774,101.46,73.255z M97.932,82.461l-26.43,26.43c-0.977,0.976-0.977,2.559,0,3.535l26.43,26.43 c1.559,1.559,1.557,4.101,0.007,5.658c-1.593,1.581-4.079,1.58-5.66-0.002c0,0-0.001,0-0.001,0l-31.033-31.034 c-1.551-1.544-1.571-4.076,0.003-5.651C92.981,76.094,92.295,76.79,92.295,76.79c1.525-1.539,4.056-1.562,5.633,0.004 C99.485,78.357,99.485,80.901,97.932,82.461z"></path><path d="M167.257,73.255c-3.502-3.478-9.206-3.478-12.72,0.007c-3.51,3.511-3.51,9.224,0.001,12.735l24.663,24.663l-24.664,24.663 c-3.509,3.511-3.509,9.224,0,12.735c0.003,0.002,0.006,0.005,0.008,0.008c3.908,3.874,10.081,3.081,12.847-0.146l30.902-30.902 c3.509-3.508,3.509-9.217,0-12.725L167.257,73.255z M194.759,113.481l-31.021,31.02c-1.617,1.617-4.102,1.565-5.669,0.016 c-1.557-1.562-1.556-4.1,0.004-5.661l26.431-26.43c0.976-0.976,0.976-2.559,0-3.535l-26.431-26.43 c-1.561-1.562-1.561-4.103-0.008-5.657c1.592-1.577,4.081-1.577,5.663-0.008l31.03,31.03 C196.305,109.373,196.32,111.92,194.759,113.481z"></path><path d="M140.403,71.026c-4.827-1.458-9.767,1.147-11.25,5.93l-19.489,62.626c-1.48,4.729,1.168,9.784,5.903,11.271 c4.707,1.491,9.785-1.103,11.279-5.921l19.489-62.626C147.815,77.583,145.166,72.527,140.403,71.026z M141.563,80.816 l-19.491,62.632c-0.673,2.169-2.932,3.293-4.997,2.638c-0.002-0.001-0.005-0.002-0.008-0.003 c-2.108-0.661-3.289-2.907-2.631-5.012l19.491-62.632c0.659-2.126,2.867-3.281,5.001-2.636 C141.038,76.469,142.221,78.715,141.563,80.816z"></path><path d="M4.67,171.168c1.37,0,2.49-1.12,2.49-2.5s-1.12-2.5-2.49-2.5c-1.38,0-2.5,1.12-2.5,2.5S3.29,171.168,4.67,171.168z"></path><path d="M246.333,12.062H9.667c-4.136,0-7.5,3.364-7.5,7.5c0,3.647,0.003,130.313,0.003,139.107c0,1.38,1.12,2.5,2.5,2.5 s2.5-1.12,2.5-2.5c0-0.01,0-0.01-0.01-0.02V49.079h241.67v187.36c0,1.37-1.12,2.49-2.5,2.5H9.67c-1.38-0.01-2.5-1.13-2.51-2.5 v-57.77c0-1.38-1.12-2.5-2.49-2.5c-1.38,0-2.5,1.12-2.5,2.5v57.77c0,4.13,3.36,7.5,7.5,7.5h236.66c4.14,0,7.5-3.37,7.5-7.5 c0-7.332,0.003-214.155,0.003-216.877C253.833,15.426,250.469,12.062,246.333,12.062z M7.167,44.079V19.562 c0-1.378,1.121-2.5,2.5-2.5h236.666c1.379,0,2.5,1.122,2.5,2.5v24.517H7.167z"></path><path d="M23.76,21.938c-4.76,0-8.64,3.87-8.64,8.63c0,4.76,3.88,8.63,8.64,8.63c4.75,0,8.63-3.87,8.63-8.63 C32.39,25.809,28.51,21.938,23.76,21.938z M23.76,34.208c-2-0.01-3.63-1.64-3.64-3.64c0.01-2,1.64-3.63,3.64-3.63 c1.99,0,3.62,1.63,3.63,3.63C27.38,32.568,25.75,34.198,23.76,34.208z"></path><path d="M47.399,21.938c-4.76,0-8.63,3.88-8.63,8.63c0,4.76,3.87,8.64,8.63,8.64c4.761,0,8.631-3.88,8.631-8.64 C56.03,25.818,52.16,21.938,47.399,21.938z M47.399,34.208c-2-0.01-3.63-1.64-3.63-3.64c0-1.99,1.63-3.63,3.63-3.63 s3.631,1.64,3.631,3.63C51.03,32.568,49.399,34.198,47.399,34.208z"></path><path d="M71.05,21.938c-4.76,0-8.63,3.88-8.63,8.63c0,4.76,3.87,8.63,8.63,8.64c4.76-0.01,8.63-3.88,8.63-8.64 C79.68,25.818,75.81,21.938,71.05,21.938z M71.05,34.208c-2-0.01-3.63-1.64-3.63-3.64c0-1.99,1.63-3.62,3.63-3.63 c2,0.01,3.63,1.64,3.63,3.63C74.68,32.568,73.05,34.198,71.05,34.208z"></path><path d="M206.58,28.079c-1.38,0-2.5,1.12-2.5,2.49c0,1.38,1.12,2.5,2.5,2.5s2.5-1.12,2.5-2.5 C209.08,29.198,207.96,28.079,206.58,28.079z"></path><path d="M237,28.079h-20.42c-1.38,0-2.5,1.12-2.5,2.49c0,1.38,1.12,2.5,2.5,2.5H237c1.38,0,2.5-1.12,2.5-2.5 C239.5,29.198,238.38,28.079,237,28.079z"></path><path d="M196.58,28.079h-100c-1.38,0-2.5,1.12-2.5,2.49c0,1.38,1.12,2.5,2.5,2.5h100c1.38,0,2.5-1.12,2.5-2.5 C199.08,29.198,197.96,28.079,196.58,28.079z"></path></g></svg>