<svg xmlns="http://www.w3.org/2000/svg" x="0px" y="0px"
width="256" height="256"
viewBox="0 0 256 256"
style=" fill:#000000;"><path fill="#cecece" d="M32.035,200.374c-7.535,0-13.665-6.13-13.665-13.665V62.932c0-7.535,6.13-13.665,13.665-13.665h191.931 c7.535,0,13.665,6.13,13.665,13.665v123.776c0,7.535-6.13,13.665-13.665,13.665H32.035z"></path><path fill="#afafaf" d="M33.036,186.709V62.933c0-7.535,6.13-13.665,13.665-13.665H32.035c-7.534,0-13.665,6.13-13.665,13.665 v123.776c0,7.535,6.13,13.665,13.665,13.665h14.667C39.167,200.374,33.036,194.243,33.036,186.709z"></path><path fill="#e2e2e2" d="M222.964,186.709V62.933c0-7.535-6.13-13.665-13.665-13.665h14.667c7.534,0,13.665,6.13,13.665,13.665 v123.776c0,7.535-6.13,13.665-13.665,13.665h-14.667C216.833,200.374,222.964,194.243,222.964,186.709z"></path><path fill="#63bce7" d="M229.221,174.709c0,2.891-2.365,5.256-5.256,5.256H32.035c-2.891,0-5.256-2.365-5.256-5.256V62.932 c0-2.891,2.365-5.256,5.256-5.256h191.931c2.891,0,5.256,2.365,5.256,5.256V174.709z"></path><path fill="#6377e7" d="M41.446,174.709V62.932c0-2.891,2.365-5.256,5.256-5.256H32.035c-2.891,0-5.256,2.365-5.256,5.256v111.777 c0,2.891,2.365,5.256,5.256,5.256h14.667C43.811,179.965,41.446,177.599,41.446,174.709z"></path><path fill="#63e2e7" d="M214.554,174.709V62.932c0-2.891-2.365-5.256-5.256-5.256h14.667c2.891,0,5.256,2.365,5.256,5.256v111.777 c0,2.891-2.365,5.256-5.256,5.256h-14.667C212.189,179.965,214.554,177.599,214.554,174.709z"></path><rect width="76.383" height="9.197" x="89.809" y="222.532" fill="#9e9e9e"></rect><rect width="54.659" height="22.158" x="100.67" y="200.374" fill="#cecece"></rect><rect width="14.667" height="22.158" x="100.67" y="200.374" fill="#afafaf"></rect><rect width="14.667" height="9.197" x="89.809" y="222.532" fill="#707070"></rect><circle cx="128" cy="190.169" r="4.5" fill="#9e9e9e"></circle><g><polygon fill="#f8af23" points="188.836,40.627 161.507,13.298 67.164,13.298 67.164,179.965 188.836,179.965"></polygon><rect width="121.673" height="49.018" x="67.164" y="130.947" fill="#f46275"></rect><path fill="#3f3679" d="M27.323,241.202H9.32c-0.829,0-1.5,0.671-1.5,1.5s0.671,1.5,1.5,1.5h18.003c0.829,0,1.5-0.671,1.5-1.5 S28.152,241.202,27.323,241.202z"></path><path fill="#3f3679" d="M246.68,241.202h-18.003c-0.828,0-1.5,0.671-1.5,1.5s0.672,1.5,1.5,1.5h18.003c0.828,0,1.5-0.671,1.5-1.5 S247.508,241.202,246.68,241.202z"></path><path fill="#3f3679" d="M218.479,241.202H37.521c-0.829,0-1.5,0.671-1.5,1.5s0.671,1.5,1.5,1.5h180.959c0.828,0,1.5-0.671,1.5-1.5 S219.308,241.202,218.479,241.202z"></path><path fill="#3f3679" d="M9.32,233.229h80.489h76.383h80.488c0.828,0,1.5-0.671,1.5-1.5s-0.672-1.5-1.5-1.5h-78.988v-7.697 c0-0.829-0.672-1.5-1.5-1.5h-9.362v-19.158h67.137c8.361,0,15.164-6.803,15.164-15.165V62.933 c0-8.362-6.803-15.165-15.164-15.165h-33.63v-7.14c0-0.398-0.158-0.779-0.439-1.061l-27.329-27.33 c-0.281-0.281-0.663-0.439-1.061-0.439H67.164c-0.829,0-1.5,0.671-1.5,1.5v34.47H32.035c-8.362,0-15.165,6.803-15.165,15.165 v123.776c0,8.362,6.803,15.165,15.165,15.165H99.17v19.158h-9.362c-0.829,0-1.5,0.671-1.5,1.5v7.697H9.32 c-0.829,0-1.5,0.671-1.5,1.5S8.491,233.229,9.32,233.229z M32.035,178.464c-2.071,0-3.756-1.685-3.756-3.755V62.932 c0-2.071,1.685-3.755,3.756-3.755h33.629v71.77v47.518H32.035z M68.664,132.447h118.672v46.018H68.664V132.447z M163.007,16.919 l22.208,22.208h-22.208V16.919z M190.336,130.947v-71.77h33.63c2.07,0,3.755,1.685,3.755,3.755v111.777 c0,2.071-1.685,3.755-3.755,3.755h-33.63V130.947z M160.007,14.798v25.83c0,0.829,0.672,1.5,1.5,1.5h25.829v87.319H68.664 V14.798H160.007z M19.87,186.709V62.933c0-6.708,5.457-12.165,12.165-12.165h33.629v5.409H32.035 c-3.725,0-6.756,3.03-6.756,6.755v111.777c0,3.725,3.031,6.755,6.756,6.755h35.129h121.672h35.13 c3.725,0,6.755-3.03,6.755-6.755V62.932c0-3.725-3.03-6.755-6.755-6.755h-33.63v-5.409h33.63 c6.707,0,12.164,5.457,12.164,12.165v123.776c0,6.708-5.457,12.165-12.164,12.165h-68.637H100.67H32.035 C25.327,198.874,19.87,193.417,19.87,186.709z M102.17,201.874h51.659v19.158H102.17V201.874z M91.309,224.032h9.362h54.659 h9.362v6.197H91.309V224.032z"></path><path fill="#3f3679" d="M128,196.169c3.309,0,6-2.691,6-6s-2.691-6-6-6s-6,2.691-6,6S124.691,196.169,128,196.169z M128,187.169 c1.654,0,3,1.346,3,3s-1.346,3-3,3s-3-1.346-3-3S126.346,187.169,128,187.169z"></path><path fill="#3f3679" d="M86.047,79.78h3.701c1.172,0,2.201,1.531,2.201,3.276v10.587c0,3.46,2.28,6.276,5.082,6.276h3.582 c0.829,0,1.5-0.671,1.5-1.5s-0.671-1.5-1.5-1.5h-3.582c-0.985,0-2.082-1.345-2.082-3.276V83.056 c0-1.912-0.714-3.624-1.835-4.776c1.121-1.152,1.835-2.864,1.835-4.776V62.918c0-1.931,1.097-3.276,2.082-3.276h3.582 c0.829,0,1.5-0.671,1.5-1.5s-0.671-1.5-1.5-1.5h-3.582c-2.802,0-5.082,2.815-5.082,6.276v10.586 c0,1.745-1.029,3.276-2.201,3.276h-3.701c-0.829,0-1.5,0.671-1.5,1.5S85.219,79.78,86.047,79.78z"></path><path fill="#3f3679" d="M161.05,93.643c0,1.931-1.098,3.276-2.082,3.276h-3.582c-0.828,0-1.5,0.671-1.5,1.5s0.672,1.5,1.5,1.5 h3.582c2.802,0,5.082-2.815,5.082-6.276V83.056c0-1.745,1.028-3.276,2.201-3.276h3.702c0.828,0,1.5-0.671,1.5-1.5 s-0.672-1.5-1.5-1.5h-3.702c-1.173,0-2.201-1.531-2.201-3.276V62.918c0-3.46-2.28-6.276-5.082-6.276h-3.582 c-0.828,0-1.5,0.671-1.5,1.5s0.672,1.5,1.5,1.5h3.582c0.984,0,2.082,1.345,2.082,3.276v10.586c0,1.912,0.714,3.624,1.835,4.776 c-1.121,1.152-1.835,2.864-1.835,4.776V93.643z"></path><path fill="#3f3679" d="M127.918,94.374c0.829,0,1.5-0.671,1.5-1.5V74.208c0-0.829-0.671-1.5-1.5-1.5s-1.5,0.671-1.5,1.5v18.667 C126.418,93.703,127.089,94.374,127.918,94.374z"></path><circle cx="127.918" cy="66.249" r="2.563" fill="#3f3679"></circle><g><path fill="#3f3679" d="M154.186,168.514c-0.956,1.578-2.365,2.835-4.227,3.774c-1.862,0.94-4.118,1.409-6.768,1.409 c-3.993,0-7.28-0.973-9.863-2.919c-2.204-1.659-3.553-3.88-4.048-6.663c-0.138-0.777,0.482-1.489,1.271-1.489h6.642 c0.586,0,1.089,0.404,1.236,0.972c0.23,0.891,0.652,1.624,1.264,2.198c0.822,0.772,1.87,1.158,3.145,1.158 c1.107,0,1.979-0.302,2.617-0.906c0.637-0.604,0.956-1.409,0.956-2.415c0-0.906-0.294-1.661-0.881-2.264 c-0.587-0.604-1.317-1.099-2.189-1.485c-0.873-0.386-2.081-0.847-3.623-1.384c-2.248-0.771-4.085-1.517-5.51-2.239 c-1.426-0.721-2.651-1.794-3.674-3.22c-1.024-1.426-1.534-3.279-1.534-5.561c0-2.113,0.536-3.941,1.61-5.485 c1.073-1.543,2.558-2.725,4.454-3.548c1.895-0.822,4.067-1.233,6.516-1.233c3.958,0,7.103,0.94,9.435,2.818 c1.955,1.576,3.197,3.647,3.725,6.214c0.163,0.792-0.458,1.536-1.266,1.536h-6.793c-0.574,0-1.063-0.389-1.23-0.938 c-0.226-0.743-0.585-1.362-1.078-1.855c-0.688-0.687-1.619-1.032-2.793-1.032c-1.006,0-1.82,0.269-2.44,0.805 c-0.621,0.537-0.931,1.326-0.931,2.365c0,0.839,0.276,1.552,0.83,2.139c0.553,0.587,1.249,1.065,2.088,1.434 c0.839,0.369,2.046,0.839,3.623,1.409c2.281,0.772,4.143,1.535,5.586,2.29c1.442,0.755,2.684,1.854,3.724,3.296 c1.039,1.443,1.56,3.321,1.56,5.636C155.62,165.21,155.142,166.937,154.186,168.514z"></path></g><g><path fill="#3f3679" d="M123.088,137.768c0.708,0,1.283,0.574,1.283,1.283v23.022c0,3.724-1.015,6.592-3.044,8.605 c-2.03,2.013-4.839,3.019-8.429,3.019c-3.892,0-6.978-1.098-9.259-3.296c-2.02-1.945-3.146-4.646-3.377-8.104 c-0.05-0.744,0.539-1.381,1.285-1.381h5.96c0.663,0,1.202,0.512,1.274,1.171c0.276,2.54,1.514,3.81,3.715,3.81 c2.18,0,3.271-1.275,3.271-3.825v-23.022c0-0.708,0.574-1.283,1.283-1.283H123.088z"></path></g></g></svg>