<svg xmlns="http://www.w3.org/2000/svg" x="0px" y="0px"
width="64" height="64"
viewBox="0 0 64 64"
style=" fill:#000000;"><circle cx="40" cy="15" r="5" fill="#1895aa"></circle><polygon fill="#1895aa" points="36 32 32 38 28 42 31 45 36 40 41 33 36 32"></polygon><path fill="#1895aa" d="M53,24V20H37l-9,8,2,3,3.9-2.94a4,4,0,0,0,3.37,5.42L43,34v6h5V31.69a2,2,0,0,0-1.67-2L42,29l1-5Z"></path><polygon fill="#e05b69" points="53 2 53 12 62 7 53 2"></polygon><circle cx="15" cy="25" r="5" fill="#f7d04f"></circle><polygon fill="#f7d04f" points="11 42 7 48 3 52 6 55 11 50 16 43 11 42"></polygon><path fill="#f7d04f" d="M21.33,39.72,17,39l1-4h5l7-4-2-3-6,3-6-1H12L8.9,38.06a4,4,0,0,0,3.37,5.42L18,44v6h5V41.69A2,2,0,0,0,21.33,39.72Z"></path><polygon fill="#ef9f35" points="2 62 2 61 16 58 16 50 32 50 41 40 62 40 62 62 2 62"></polygon><path fill="#f9f6ed" d="M17,4a6,6,0,0,0-1.5.2A8,8,0,0,0,2,10v1H23V10A6,6,0,0,0,17,4Z"></path><rect width="2" height="2" x="17" y="13" fill="#f9f6ed"></rect><rect width="2" height="2" x="21" y="13" fill="#f9f6ed"></rect><rect width="2" height="2" x="25" y="13" fill="#f9f6ed"></rect><rect width="2" height="29" x="52" y="2" fill="#5a5a60"></rect></svg>