<svg xmlns="http://www.w3.org/2000/svg" x="0px" y="0px"
width="64" height="64"
viewBox="0 0 256 256"
style=" fill:#000000;"><circle cx="128" cy="128" r="120" fill="#382b73"></circle><circle cx="128" cy="128" r="102.5" fill="#473080"></circle><path fill="#382b73" d="M158.41,68.468H97.59c-4.93,0-8.927,3.997-8.927,8.927v115.211c0,4.93,3.997,8.927,8.927,8.927h60.82 c4.93,0,8.927-3.997,8.927-8.927V77.395C167.337,72.464,163.34,68.468,158.41,68.468z"></path><g><path fill="#d1d3d4" d="M158.41,194.532H97.59c-4.93,0-8.927-3.997-8.927-8.927V70.395c0-4.93,3.997-8.927,8.927-8.927h60.82 c4.93,0,8.927,3.997,8.927,8.927v115.211C167.337,190.536,163.34,194.532,158.41,194.532z"></path><path fill="#fff" d="M148.623,194.532h-41.245c-4.173,0-7.555-3.383-7.555-7.555V69.023c0-4.173,3.383-7.555,7.555-7.555 h41.245c4.173,0,7.555,3.383,7.555,7.555v117.954C156.178,191.149,152.796,194.532,148.623,194.532z"></path><path fill="#ef5a9d" d="M160.827,184.397H95.173c-1.233,0-2.232-0.999-2.232-2.232V73.835c0-1.233,0.999-2.232,2.232-2.232 h65.655c1.233,0,2.232,0.999,2.232,2.232v108.33C163.059,183.398,162.06,184.397,160.827,184.397z"></path><rect width="56.356" height="112.794" x="99.822" y="71.603" fill="#f06ea9"></rect><path fill="#009add" d="M92.941,73.835v12.739h70.118V73.835c0-1.233-0.999-2.232-2.232-2.232H95.173 C93.94,71.603,92.941,72.602,92.941,73.835z"></path><rect width="56.356" height="14.971" x="99.822" y="71.603" fill="#1caee4"></rect><path fill="#d1d3d4" d="M106.151,79.089c0,2.26-1.832,4.092-4.091,4.092c-2.26,0-4.091-1.832-4.091-4.092 c0-2.26,1.832-4.091,4.091-4.091C104.319,74.997,106.151,76.829,106.151,79.089z"></path><path fill="#fff" d="M102.059,74.997c-0.826,0-1.594,0.245-2.238,0.667v6.85c0.643,0.421,1.412,0.667,2.238,0.667 c2.26,0,4.091-1.832,4.091-4.092C106.151,76.829,104.319,74.997,102.059,74.997z"></path><path fill="#d1d3d4" d="M149.367,75.366c0-0.524,0.424-0.948,0.948-0.948h7.122c0.524,0,0.948,0.425,0.948,0.948 c0,0.524-0.424,0.949-0.948,0.949h-7.122C149.791,76.315,149.367,75.89,149.367,75.366z M157.438,78.14h-7.122 c-0.524,0-0.948,0.425-0.948,0.948v0c0,0.524,0.424,0.948,0.948,0.948h7.122c0.524,0,0.948-0.425,0.948-0.948v0 C158.386,78.565,157.962,78.14,157.438,78.14z M157.438,81.863h-7.122c-0.524,0-0.948,0.425-0.948,0.948 c0,0.524,0.424,0.949,0.948,0.949h7.122c0.524,0,0.948-0.425,0.948-0.949C158.386,82.287,157.962,81.863,157.438,81.863z"></path><path fill="#fff" d="M149.367,79.089L149.367,79.089c0,0.524,0.424,0.949,0.948,0.949h5.863V78.14h-5.863 C149.791,78.14,149.367,78.565,149.367,79.089z"></path><path fill="#fff" d="M156.178,81.863h-5.863c-0.524,0-0.948,0.425-0.948,0.948c0,0.524,0.424,0.949,0.948,0.949h5.863V81.863 z"></path><path fill="#fff" d="M149.367,75.366c0,0.524,0.424,0.949,0.948,0.949h5.863v-1.897h-5.863 C149.791,74.418,149.367,74.842,149.367,75.366z"></path><g><path fill="#e43d91" d="M142.607,133.483c0.001-0.018-0.004-0.243-0.008-0.292c-0.032-0.556-0.256-1.099-0.671-1.516 l-3.738-3.738c-0.754-0.751-1.917-0.9-2.832-0.359l-5.859,3.448c-0.197-0.087-0.398-0.167-0.598-0.245l-1.705-6.586 c-0.266-1.029-1.196-1.747-2.258-1.747h-5.288c-1.062,0-1.992,0.718-2.258,1.747l-1.705,6.586 c-0.2,0.078-0.401,0.159-0.598,0.245l-5.859-3.448c-0.915-0.541-2.079-0.392-2.832,0.359l-3.738,3.738 c-0.415,0.417-0.639,0.959-0.671,1.516c-0.004,0.049-0.009,0.274-0.008,0.292l0,2.874c0.007,0.393,0.109,0.786,0.319,1.143 l2.194,3.727l-5.575,1.443c-1.029,0.266-1.747,1.196-1.747,2.258v8.279c0,1.063,0.719,1.991,1.748,2.258l5.576,1.443 l-2.194,3.728c-0.217,0.367-0.318,0.774-0.319,1.179c0,0.007-0.001,0.119-0.002,0.139l0,2.756 c-0.027,0.636,0.206,1.274,0.68,1.748l3.739,3.739c0.752,0.752,1.916,0.9,2.832,0.361l5.859-3.449 c0.197,0.086,0.397,0.167,0.597,0.246l1.704,6.584c0.266,1.029,1.195,1.748,2.258,1.748h5.288 c1.063,0,1.991-0.719,2.258-1.748l1.704-6.584c0.201-0.079,0.4-0.16,0.597-0.246l5.859,3.449 c0.916,0.539,2.081,0.391,2.832-0.361l3.739-3.739c0.474-0.474,0.707-1.112,0.68-1.748l0-2.756 c0-0.02-0.002-0.132-0.002-0.139c-0.001-0.405-0.101-0.812-0.319-1.179l-2.194-3.728l5.576-1.443 c1.029-0.266,1.748-1.195,1.748-2.258v-8.279c0-1.062-0.718-1.992-1.747-2.258l-5.575-1.443l2.194-3.727 c0.21-0.356,0.312-0.75,0.319-1.142C142.607,136.338,142.607,133.483,142.607,133.483z M122.293,155.897 c-4.591,0-8.325-3.735-8.325-8.325c0-4.591,3.735-8.325,8.325-8.325c4.591,0,8.325,3.735,8.325,8.325 C130.619,152.162,126.884,155.897,122.293,155.897z"></path><path fill="#e43d91" d="M155.587,102.183c0-0.011-0.002-0.143-0.005-0.172c-0.019-0.328-0.151-0.648-0.396-0.894l-2.205-2.205 c-0.445-0.443-1.131-0.531-1.671-0.212l-3.456,2.034c-0.116-0.051-0.235-0.099-0.353-0.145l-1.006-3.885 c-0.157-0.607-0.706-1.03-1.332-1.03h-3.119c-0.626,0-1.175,0.423-1.332,1.03l-1.006,3.885 c-0.118,0.046-0.236,0.094-0.353,0.145l-3.456-2.034c-0.54-0.319-1.226-0.231-1.671,0.212l-2.205,2.205 c-0.245,0.246-0.377,0.566-0.396,0.894c-0.002,0.029-0.005,0.162-0.005,0.172l0,1.695c0.004,0.232,0.065,0.464,0.188,0.674 l1.294,2.199l-3.289,0.851c-0.607,0.157-1.03,0.706-1.03,1.332v4.884c0,0.627,0.424,1.175,1.031,1.332l3.289,0.852 l-1.294,2.199c-0.128,0.217-0.188,0.457-0.188,0.696c0,0.004-0.001,0.008-0.001,0.013c0,0.012,0,1.695,0,1.695 c-0.016,0.375,0.121,0.752,0.401,1.031l2.206,2.206c0.443,0.443,1.13,0.531,1.671,0.213l3.457-2.035 c0.116,0.051,0.234,0.098,0.352,0.145l1.005,3.884c0.157,0.607,0.705,1.031,1.332,1.031h3.12c0.627,0,1.175-0.424,1.332-1.031 l1.005-3.884c0.118-0.047,0.236-0.094,0.352-0.145l3.457,2.035c0.54,0.318,1.227,0.231,1.671-0.213l2.206-2.206 c0.28-0.28,0.417-0.656,0.401-1.031l0-1.626c0-0.012,0-0.023,0-0.035c0-0.012,0-0.023,0-0.035 c0-0.004-0.001-0.008-0.001-0.013c0-0.239-0.06-0.479-0.188-0.696l-1.294-2.199l3.289-0.852 c0.607-0.157,1.031-0.705,1.031-1.332v-4.884c0-0.626-0.423-1.175-1.03-1.332l-3.289-0.851l1.294-2.199 c0.124-0.21,0.184-0.442,0.188-0.674C155.587,103.867,155.587,102.183,155.587,102.183z M143.603,115.406 c-2.708,0-4.912-2.203-4.912-4.912c0-2.708,2.203-4.912,4.912-4.912s4.912,2.203,4.912,4.912 C148.515,113.202,146.311,115.406,143.603,115.406z"></path><path fill="#e7ad27" d="M142.607,130.483c0.001-0.018-0.004-0.243-0.008-0.292c-0.032-0.556-0.256-1.099-0.671-1.516 l-3.738-3.738c-0.754-0.751-1.917-0.9-2.832-0.359l-5.859,3.448c-0.197-0.087-0.398-0.167-0.598-0.245l-1.705-6.586 c-0.266-1.029-1.196-1.747-2.258-1.747h-5.288c-1.062,0-1.992,0.718-2.258,1.747l-1.705,6.586 c-0.2,0.078-0.401,0.159-0.598,0.245l-5.859-3.448c-0.915-0.541-2.079-0.392-2.832,0.359l-3.738,3.738 c-0.415,0.417-0.639,0.959-0.671,1.516c-0.004,0.049-0.009,0.274-0.008,0.292l0,2.874c0.007,0.393,0.109,0.786,0.319,1.143 l2.194,3.727l-5.575,1.443c-1.029,0.266-1.747,1.196-1.747,2.258v8.279c0,1.063,0.719,1.991,1.748,2.258l5.576,1.443 l-2.194,3.728c-0.217,0.367-0.318,0.774-0.319,1.179c0,0.007-0.001,0.119-0.002,0.139l0,2.756 c-0.027,0.636,0.206,1.274,0.68,1.748l3.739,3.739c0.752,0.752,1.916,0.9,2.832,0.361l5.859-3.449 c0.197,0.086,0.397,0.167,0.597,0.246l1.704,6.584c0.266,1.029,1.195,1.748,2.258,1.748h5.288 c1.063,0,1.991-0.719,2.258-1.748l1.704-6.584c0.201-0.079,0.4-0.16,0.597-0.246l5.859,3.449 c0.916,0.539,2.081,0.391,2.832-0.361l3.739-3.739c0.474-0.474,0.707-1.112,0.68-1.748l0-2.756 c0-0.02-0.002-0.132-0.002-0.139c-0.001-0.405-0.101-0.812-0.319-1.179l-2.194-3.728l5.576-1.443 c1.029-0.266,1.748-1.195,1.748-2.258v-8.279c0-1.062-0.718-1.992-1.747-2.258l-5.575-1.443l2.194-3.727 c0.21-0.356,0.312-0.75,0.319-1.142C142.607,133.338,142.607,130.483,142.607,130.483z M122.293,152.897 c-4.591,0-8.325-3.735-8.325-8.325c0-4.591,3.735-8.325,8.325-8.325c4.591,0,8.325,3.735,8.325,8.325 C130.619,149.162,126.884,152.897,122.293,152.897z"></path><path fill="#fddd3a" d="M122.293,126.527c-9.965,0-18.044,8.079-18.044,18.044c0,9.965,8.079,18.044,18.044,18.044 s18.044-8.079,18.044-18.044C140.337,134.606,132.259,126.527,122.293,126.527z M122.293,152.863 c-4.579,0-8.291-3.712-8.291-8.291s3.712-8.291,8.291-8.291c4.579,0,8.291,3.712,8.291,8.291 S126.872,152.863,122.293,152.863z"></path><path fill="#fddd3a" d="M126.729,131.036h-8.872c-1.525,0-2.64-1.44-2.258-2.916l1.792-6.923 c0.266-1.029,1.195-1.748,2.258-1.748h5.288c1.063,0,1.991,0.719,2.258,1.748l1.792,6.923 C129.369,129.596,128.254,131.036,126.729,131.036z"></path><path fill="#fddd3a" d="M117.857,158.107h8.872c1.525,0,2.64,1.44,2.258,2.916l-1.792,6.923 c-0.266,1.029-1.195,1.748-2.258,1.748h-5.288c-1.063,0-1.991-0.719-2.258-1.748l-1.792-6.923 C115.217,159.547,116.332,158.107,117.857,158.107z"></path><path fill="#fddd3a" d="M135.829,149.007v-8.872c0-1.525,1.44-2.64,2.916-2.258l6.923,1.792 c1.029,0.266,1.748,1.195,1.748,2.258v5.288c0,1.063-0.719,1.991-1.748,2.258l-6.923,1.792 C137.269,151.647,135.829,150.533,135.829,149.007z"></path><path fill="#fddd3a" d="M108.758,140.135v8.872c0,1.525-1.44,2.64-2.916,2.258l-6.923-1.792 c-1.029-0.266-1.748-1.195-1.748-2.258v-5.288c0-1.063,0.719-1.991,1.748-2.258l6.923-1.792 C107.318,137.496,108.758,138.61,108.758,140.135z"></path><g><path fill="#fddd3a" d="M135.001,138.137l-6.273-6.273c-1.078-1.078-0.848-2.885,0.466-3.659l6.162-3.628 c0.916-0.539,2.081-0.391,2.832,0.361l3.739,3.739c0.752,0.752,0.9,1.916,0.361,2.832l-3.628,6.162 C137.886,138.986,136.079,139.216,135.001,138.137z"></path><path fill="#fddd3a" d="M109.585,151.006l6.273,6.273c1.078,1.078,0.848,2.885-0.466,3.659l-6.162,3.628 c-0.916,0.539-2.08,0.391-2.832-0.361l-3.739-3.739c-0.752-0.752-0.9-1.916-0.361-2.832l3.628-6.162 C106.701,150.157,108.507,149.927,109.585,151.006z"></path></g><g><path fill="#fddd3a" d="M128.728,157.279l6.273-6.273c1.078-1.078,2.885-0.848,3.659,0.466l3.628,6.162 c0.539,0.916,0.391,2.081-0.361,2.832l-3.739,3.739c-0.752,0.752-1.916,0.9-2.832,0.361l-6.162-3.628 C127.879,160.164,127.649,158.358,128.728,157.279z"></path><path fill="#fddd3a" d="M115.859,131.864l-6.273,6.273c-1.078,1.078-2.885,0.848-3.659-0.466l-3.628-6.162 c-0.539-0.916-0.391-2.081,0.361-2.832l3.739-3.739c0.752-0.752,1.916-0.9,2.832-0.361l6.162,3.628 C116.707,128.979,116.937,130.785,115.859,131.864z"></path></g><g><path fill="#fff235" d="M122.293,159.675c-8.328,0-15.103-6.775-15.103-15.103s6.775-15.103,15.103-15.103 s15.103,6.775,15.103,15.103S130.621,159.675,122.293,159.675z M122.293,131.831c-7.025,0-12.741,5.715-12.741,12.74 s5.715,12.74,12.741,12.74s12.741-5.715,12.741-12.74S129.318,131.831,122.293,131.831z"></path></g><g><path fill="#f6ca14" d="M122.293,157.312c-7.025,0-12.74-5.715-12.74-12.74c0-7.025,5.715-12.74,12.74-12.74 c7.025,0,12.74,5.715,12.74,12.74C135.034,151.597,129.318,157.312,122.293,157.312z M122.293,136.246 c-4.591,0-8.325,3.735-8.325,8.325s3.735,8.325,8.325,8.325c4.591,0,8.325-3.735,8.325-8.325 S126.884,136.246,122.293,136.246z"></path></g><g><path fill="#e43d91" d="M155.587,102.183c0-0.011-0.002-0.143-0.005-0.172c-0.019-0.328-0.151-0.648-0.396-0.894l-2.205-2.205 c-0.445-0.443-1.131-0.531-1.671-0.212l-3.456,2.034c-0.116-0.051-0.235-0.099-0.353-0.145l-1.006-3.885 c-0.157-0.607-0.706-1.03-1.332-1.03h-3.119c-0.626,0-1.175,0.423-1.332,1.03l-1.006,3.885 c-0.118,0.046-0.236,0.094-0.353,0.145l-3.456-2.034c-0.54-0.319-1.226-0.231-1.671,0.212l-2.205,2.205 c-0.245,0.246-0.377,0.566-0.396,0.894c-0.002,0.029-0.005,0.162-0.005,0.172l0,1.695c0.004,0.232,0.065,0.464,0.188,0.674 l1.294,2.199l-3.289,0.851c-0.607,0.157-1.03,0.706-1.03,1.332v4.884c0,0.627,0.424,1.175,1.031,1.332l3.289,0.852 l-1.294,2.199c-0.128,0.217-0.188,0.457-0.188,0.696c0,0.004-0.001,0.008-0.001,0.013c0,0.012,0,1.695,0,1.695 c-0.016,0.375,0.121,0.752,0.401,1.031l2.206,2.206c0.443,0.443,1.13,0.531,1.671,0.213l3.457-2.035 c0.116,0.051,0.234,0.098,0.352,0.145l1.005,3.884c0.157,0.607,0.705,1.031,1.332,1.031h3.12c0.627,0,1.175-0.424,1.332-1.031 l1.005-3.884c0.118-0.047,0.236-0.094,0.352-0.145l3.457,2.035c0.54,0.318,1.227,0.231,1.671-0.213l2.206-2.206 c0.28-0.28,0.417-0.656,0.401-1.031l0-1.626c0-0.012,0-0.023,0-0.035c0-0.012,0-0.023,0-0.035 c0-0.004-0.001-0.008-0.001-0.013c0-0.239-0.06-0.479-0.188-0.696l-1.294-2.199l3.289-0.852 c0.607-0.157,1.031-0.705,1.031-1.332v-4.884c0-0.626-0.423-1.175-1.03-1.332l-3.289-0.851l1.294-2.199 c0.124-0.21,0.184-0.442,0.188-0.674C155.587,103.867,155.587,102.183,155.587,102.183z M143.603,115.406 c-2.708,0-4.912-2.203-4.912-4.912c0-2.708,2.203-4.912,4.912-4.912s4.912,2.203,4.912,4.912 C148.515,113.202,146.311,115.406,143.603,115.406z"></path><path fill="#fddd3a" d="M143.603,96.849c-5.879,0-10.645,4.766-10.645,10.645s4.766,10.645,10.645,10.645 c5.879,0,10.645-4.766,10.645-10.645S149.482,96.849,143.603,96.849z M143.603,112.386c-2.701,0-4.891-2.19-4.891-4.891 s2.19-4.891,4.891-4.891c2.701,0,4.891,2.19,4.891,4.891S146.305,112.386,143.603,112.386z"></path><path fill="#fddd3a" d="M146.22,99.509h-5.234c-0.9,0-1.557-0.849-1.332-1.721l1.057-4.084 c0.157-0.607,0.705-1.031,1.332-1.031h3.12c0.627,0,1.175,0.424,1.332,1.031l1.057,4.084 C147.777,98.659,147.12,99.509,146.22,99.509z"></path><path fill="#fddd3a" d="M140.986,115.479h5.234c0.9,0,1.557,0.849,1.332,1.721l-1.057,4.084 c-0.157,0.607-0.705,1.031-1.332,1.031h-3.12c-0.627,0-1.175-0.424-1.332-1.031l-1.057-4.084 C139.429,116.329,140.086,115.479,140.986,115.479z"></path><path fill="#fddd3a" d="M151.588,110.111v-5.234c0-0.9,0.849-1.557,1.721-1.332l4.084,1.057 c0.607,0.157,1.031,0.705,1.031,1.332v3.12c0,0.627-0.424,1.175-1.031,1.332l-4.084,1.057 C152.438,111.669,151.588,111.011,151.588,110.111z"></path><path fill="#fddd3a" d="M135.618,104.877v5.234c0,0.9-0.849,1.557-1.721,1.332l-4.084-1.057 c-0.607-0.157-1.031-0.705-1.031-1.332v-3.12c0-0.627,0.424-1.175,1.031-1.332l4.084-1.057 C134.768,103.32,135.618,103.977,135.618,104.877z"></path><g><path fill="#fddd3a" d="M151.1,103.698l-3.701-3.701c-0.636-0.636-0.501-1.702,0.275-2.158l3.635-2.14 c0.54-0.318,1.227-0.231,1.671,0.213l2.206,2.206c0.443,0.443,0.531,1.13,0.213,1.671l-2.14,3.635 C152.802,104.199,151.736,104.334,151.1,103.698z"></path><path fill="#fddd3a" d="M136.106,111.29l3.701,3.701c0.636,0.636,0.501,1.702-0.275,2.158l-3.635,2.14 c-0.54,0.318-1.227,0.231-1.671-0.213l-2.206-2.206c-0.443-0.443-0.531-1.13-0.213-1.671l2.14-3.635 C134.404,110.79,135.47,110.654,136.106,111.29z"></path></g><g><path fill="#fddd3a" d="M147.399,114.991l3.701-3.701c0.636-0.636,1.702-0.501,2.158,0.275l2.14,3.635 c0.318,0.54,0.231,1.227-0.213,1.671l-2.206,2.206c-0.443,0.443-1.13,0.531-1.671,0.213l-3.635-2.14 C146.899,116.693,146.763,115.627,147.399,114.991z"></path><path fill="#fddd3a" d="M139.807,99.997l-3.701,3.701c-0.636,0.636-1.702,0.501-2.158-0.275l-2.14-3.635 c-0.318-0.54-0.231-1.227,0.213-1.671l2.206-2.206c0.443-0.443,1.13-0.531,1.671-0.213l3.635,2.14 C140.308,98.295,140.443,99.361,139.807,99.997z"></path></g><g><path fill="#fff235" d="M143.603,116.404c-4.913,0-8.91-3.997-8.91-8.91s3.997-8.91,8.91-8.91s8.91,3.997,8.91,8.91 S148.516,116.404,143.603,116.404z M143.603,99.978c-4.145,0-7.516,3.372-7.516,7.516c0,4.144,3.372,7.516,7.516,7.516 s7.516-3.372,7.516-7.516C151.119,103.35,147.748,99.978,143.603,99.978z"></path></g><g><path fill="#f6ca14" d="M143.603,115.01c-4.144,0-7.516-3.372-7.516-7.516c0-4.144,3.372-7.516,7.516-7.516 s7.516,3.372,7.516,7.516C151.119,111.639,147.748,115.01,143.603,115.01z M143.603,102.583 c-2.708,0-4.912,2.203-4.912,4.912s2.203,4.912,4.912,4.912s4.912-2.203,4.912-4.912S146.311,102.583,143.603,102.583z"></path></g></g></g></g></svg>