<svg xmlns="http://www.w3.org/2000/svg" x="0px" y="0px"
width="24" height="24"
viewBox="0 0 24 24"
style=" fill:#FFFFFF;">    <path d="M18,2H6C4.9,2,4,2.9,4,4v16c0,1.1,0.9,2,2,2h12c1.1,0,2-0.9,2-2V4C20,2.895,19.105,2,18,2z M9.5,5 C10.328,5,11,5.672,11,6.5C11,7.328,10.328,8,9.5,8S8,7.328,8,6.5C8,5.672,8.672,5,9.5,5z M7,10.25C7,9.419,8.666,9,9.5,9 S12,9.419,12,10.25V11H7V10.25z M16,19H8c-0.552,0-1-0.448-1-1v0c0-0.552,0.448-1,1-1h8c0.552,0,1,0.448,1,1v0 C17,18.552,16.552,19,16,19z M16,15H8c-0.552,0-1-0.448-1-1v0c0-0.552,0.448-1,1-1h8c0.552,0,1,0.448,1,1v0 C17,14.552,16.552,15,16,15z M16,7h-1c-0.552,0-1-0.448-1-1v0c0-0.552,0.448-1,1-1h1c0.552,0,1,0.448,1,1v0C17,6.552,16.552,7,16,7 z M16,11h-1c-0.552,0-1-0.448-1-1v0c0-0.552,0.448-1,1-1h1c0.552,0,1,0.448,1,1v0C17,10.552,16.552,11,16,11z"></path></svg>